<svg width="261" height="261" viewBox="0 0 261 261" fill="none" xmlns="http://www.w3.org/2000/svg">
<path d="M134.727 184.509C132.666 182.636 130.78 180.557 129.143 178.3C127.306 175.768 125.734 172.689 125.997 169.465C126.225 166.67 127.715 163.941 130.403 162.857C132.672 161.943 135.095 162.549 137.176 163.642C139.047 164.627 140.287 165.5 141.93 166.829C142.181 166.94 143.866 167.855 144.118 167.956C146.602 168.962 148.165 169.383 150.79 169.939C156.042 171.051 161.479 171.252 166.816 170.65C172.094 170.054 177.3 168.655 182.17 166.505C181.556 166.602 180.939 166.689 180.319 166.766C173.263 167.649 168.935 166.669 161.364 165.439C160.329 165.27 157.332 164.583 156.336 164.263C153.857 163.619 152.096 163.105 150.01 162.47C149.05 162.177 148.096 161.864 147.146 161.546C146.287 161.259 145.226 161.058 144.517 160.464C143.95 159.991 143.463 159.773 143.798 159.078C143.848 158.977 143.905 158.885 143.969 158.799C143.884 158.598 143.842 158.374 143.853 158.153C143.878 157.75 144.068 157.444 144.344 157.214C144.182 156.946 144.255 156.605 144.159 156.253C144.051 155.854 146.303 155.455 147.902 155.227C149.288 155.027 151.526 154.208 153.126 153.608C154.621 153.276 158.083 151.534 159.917 150.488C159.909 150.489 160.276 150.331 160.268 150.332C157.632 150.897 152.283 150.836 149.575 150.74C148.907 150.716 148.235 150.657 147.577 150.546C147.053 150.458 146.41 150.382 146 150.008C145.601 149.644 145.53 149.089 145.807 148.628C145.836 148.579 145.868 148.536 145.902 148.494C145.608 148.224 145.418 147.849 145.427 147.422C145.435 146.947 145.679 146.535 146.037 146.268C145.541 145.765 145.339 145.063 145.942 144.392C146.259 144.042 146.753 143.941 147.137 144.115C150.896 143.477 154.82 142.775 157.983 140.503C160.724 138.532 162.573 135.49 162.134 132.036C161.721 128.786 159.716 125.897 157.333 123.745C154.96 121.601 152.11 120.217 149.047 119.363C147.769 119.006 146.448 118.78 145.118 118.69C140.725 119.857 136.334 121.025 131.942 122.189C129.161 122.927 126.381 123.658 123.601 124.389C122.218 124.751 120.838 125.112 119.456 125.479C118.187 125.814 116.919 126.198 115.636 126.479C115.26 126.56 114.832 126.616 114.415 126.597C114.348 126.608 114.277 126.619 114.21 126.63C114.182 126.636 114.155 126.643 114.126 126.648L114.019 126.663C113.602 126.772 113.173 126.846 112.752 126.73C112.265 126.596 111.89 126.185 111.875 125.673C111.871 125.536 111.891 125.406 111.931 125.282C111.628 125.102 111.414 124.777 111.41 124.332C111.407 124.1 111.467 123.894 111.572 123.718C111.435 123.601 111.328 123.448 111.265 123.242C111.061 122.586 111.562 122.137 112.058 121.79C113.467 120.691 114.946 119.689 116.488 118.782C117.156 118.39 117.831 118.012 118.521 117.663C118.903 117.416 119.287 117.17 119.673 116.925C121.539 115.753 123.443 114.641 125.38 113.589C121.963 114.741 118.519 115.816 115.052 116.807C114.19 117.054 113.326 117.296 112.46 117.535C110.786 118.151 109.107 118.773 107.411 119.283C107.255 119.33 107.086 119.359 106.914 119.374C106.432 119.5 105.921 119.528 105.538 119.454C105.192 119.388 104.857 119.132 104.949 118.733C104.98 118.598 105.062 118.476 105.17 118.371C104.891 118.335 104.63 118.186 104.54 117.929C104.416 117.584 104.654 117.228 104.983 116.974C104.798 116.964 104.62 116.902 104.497 116.786C104.434 116.726 104.393 116.594 104.433 116.51C104.695 115.909 105.307 115.54 105.806 115.141C105.877 115.086 105.945 115.029 106.014 114.972C110.637 110.454 115.971 106.679 121.804 103.888C122.951 103.339 124.121 102.845 125.304 102.392C124.318 100.702 122.422 99.818 120.511 99.2832C115.996 99.3142 111.511 97.6406 108.042 94.7308C105.842 92.8852 104.098 90.5544 102.989 87.9029C101.646 84.6947 101.256 81.1643 101.125 77.7122C101.025 75.1427 101.063 72.5697 101.071 69.9976C100.661 68.7965 100.365 67.5541 100.195 66.2872C100.062 65.2987 99.7858 63.7185 101.081 63.3863C101.631 63.2439 102.224 63.4071 102.762 63.5319C103.337 63.6649 103.902 63.823 104.456 64.02C105.001 64.2121 105.531 64.4295 106.044 64.6906C106.366 64.5248 106.698 64.378 106.999 64.2243C107.561 63.9347 108.125 63.647 108.691 63.3689C109.939 62.7496 111.202 62.1647 112.479 61.6064C114.43 60.7515 116.412 59.9735 118.441 59.3289C118.57 58.7642 118.732 58.2043 118.931 57.6528C119.39 56.3777 119.983 55.0673 120.812 53.9835C121.204 53.4708 121.749 53.065 122.426 53.162C123.085 53.2587 123.769 53.7809 124.3 54.1522C124.879 54.5548 125.419 54.9952 125.921 55.4953C126.1 55.6756 126.281 55.8637 126.451 56.0587C127.611 56.3479 128.846 56.4296 130.039 56.4075C130.272 56.4024 130.505 56.3933 130.738 56.3842C132.103 56.2112 133.459 55.995 134.807 55.7716C137.901 55.2514 140.982 54.6546 144.077 54.1384C149.889 53.1713 155.697 52.7304 161.584 53.3495C172.753 54.5214 183.436 58.7767 192.997 64.5387C203.852 71.0803 213.576 79.6714 220.855 90.09C227.649 99.8148 232.414 111.322 233.581 123.171C233.724 124.635 233.8 125.861 233.842 127.332C233.985 128.22 234.03 129.165 233.935 130.064C233.461 134.624 232.602 146.406 227.858 156.005C225.488 160.8 221.067 167.258 218.02 171.045C214.453 175.481 210.043 179.62 207.802 181.528C205.126 183.814 201.649 186.416 198.082 188.55C192.66 191.796 186.759 194.28 180.59 195.672C175.243 196.879 169.727 197.261 164.268 196.811C158.814 196.361 153.445 195.121 148.384 193.047C143.384 190.994 138.728 188.144 134.727 184.509Z" fill="#EF8194"/>
<path d="M104.716 79.0963C105.635 78.3635 106.68 77.7563 107.803 77.3952C108.931 77.0316 110.201 76.77 111.361 77.1031C111.39 77.1122 111.4 77.1572 111.367 77.1665C110.292 77.4388 109.195 77.5553 108.146 77.9291C108.498 77.9083 108.891 78.1333 109.034 78.455C109.091 78.5854 109.11 78.7175 109.1 78.8484C109.743 78.4649 110.279 77.9499 110.86 77.4285C111.146 77.1744 111.711 77.4564 111.533 77.8538C110.977 79.1145 109.488 79.9077 108.18 80.1232C107.019 80.3141 105.816 80.1572 104.746 79.6752C104.491 79.5605 104.533 79.2444 104.716 79.0963ZM107.632 79.3956C107.596 79.3591 107.565 79.3223 107.537 79.2811C107.47 79.1857 107.423 79.0783 107.4 78.9646C107.35 78.7117 107.42 78.5468 107.577 78.3553C107.588 78.3242 107.6 78.2971 107.617 78.2674C107.659 78.1852 107.715 78.1217 107.774 78.0719C106.993 78.3852 106.255 78.7821 105.575 79.2733C106.246 79.4708 106.944 79.5157 107.632 79.3956Z" fill="#004236"/>
<path d="M114.801 84.5485C115.341 84.657 115.83 84.9605 116.369 85.1011C116.638 85.1724 116.962 85.2163 116.974 84.8573C116.979 84.6428 116.823 84.3143 116.758 84.1109C116.589 83.5818 116.394 83.0532 116.186 82.5399C116.123 82.3822 116.054 82.227 115.985 82.0719C115.444 82.1555 114.938 81.8417 114.538 81.5093C114.488 81.4683 114.45 81.4221 114.419 81.3751C114.296 81.2813 114.202 81.1307 114.157 80.9192C114.086 80.5723 114.1 80.201 114.042 79.8508C113.984 79.4927 113.901 79.137 113.796 78.7915C113.55 77.9801 113.204 77.1846 112.72 76.4846C112.676 76.419 112.765 76.3423 112.815 76.4053C113.444 77.1668 113.971 77.9684 114.309 78.9027C114.474 79.3562 114.599 79.8237 114.685 80.2991C114.701 80.3815 114.704 80.5152 114.728 80.6148C114.829 80.5707 114.942 80.5536 115.052 80.5787C115.104 80.5015 115.158 80.4182 115.195 80.3786C115.264 80.3078 115.338 80.2485 115.423 80.1981C116.14 79.7592 117.164 80.2797 116.991 81.1766C116.937 81.4538 116.751 81.6942 116.511 81.858C116.823 82.1589 117.154 82.4341 117.451 82.7547C117.774 83.1085 118.117 83.4445 118.466 83.7718C118.671 83.9655 119.059 84.4709 119.359 84.4952C119.712 84.5223 119.432 83.8182 119.468 83.5887C119.499 83.3877 119.718 83.284 119.889 83.399C120.347 83.7057 120.428 84.4435 120.102 84.8796C119.77 85.3284 119.203 85.2565 118.794 84.9711C118.256 84.5945 117.803 84.0294 117.381 83.5293C117.304 83.4369 117.221 83.3432 117.142 83.249C117.251 83.5282 117.35 83.8103 117.444 84.095C117.543 84.403 117.702 84.7632 117.654 85.0959C117.576 85.6774 116.971 85.8653 116.469 85.763C115.859 85.6374 115.05 85.3476 114.612 84.8931C114.491 84.7711 114.623 84.5121 114.801 84.5485ZM115.651 81.0093C115.681 80.9503 115.766 80.9359 115.823 80.9863C115.864 81.0241 115.904 81.0602 115.944 81.1003C115.973 81.0953 116 81.0847 116.025 81.0683C116.122 80.9987 116.13 80.8959 115.995 80.8393C115.861 80.7845 115.739 80.8846 115.636 81.0007C115.642 81.0021 115.647 81.0057 115.651 81.0093Z" fill="#004236"/>
<path d="M166.26 76.746C165.974 76.1684 165.987 75.2594 166.417 74.8109C166.515 74.6873 166.643 74.5807 166.803 74.5008C167.594 74.1006 168.447 74.5681 168.982 75.161C169.507 75.7428 170.14 76.5439 170.001 77.3814C169.846 78.3045 168.939 78.7042 168.115 78.3619C167.388 78.06 166.608 77.4514 166.26 76.746Z" fill="#004236"/>
<path d="M178.29 78.8808C178.439 78.1902 179.076 77.7332 179.758 77.6737C180.369 77.6213 180.95 77.8797 181.488 78.1363C181.866 78.3189 182.225 78.5272 182.518 78.8042C183.263 79.3803 183.768 80.1961 183.55 81.2174C183.31 82.3368 182.231 82.7916 181.191 82.4766C180.178 82.169 179.141 81.3639 178.602 80.4474C178.325 79.975 178.17 79.4245 178.29 78.8808Z" fill="#004236"/>
<path d="M176.738 70.0667C177.129 69.7201 177.717 69.6459 178.145 69.9614C178.526 70.2416 178.685 70.7917 178.553 71.2447C178.644 71.4836 178.547 71.7651 178.269 71.9126C177.917 72.0974 177.507 72.0661 177.171 71.8853C176.995 71.8348 176.832 71.7449 176.7 71.622C176.246 71.1972 176.274 70.4765 176.738 70.0667Z" fill="#004236"/>
<path d="M166.263 67.8245C165.87 66.9397 166.548 66.0448 167.48 66.0126C167.51 66.0116 167.54 66.0106 167.572 66.0115C168.222 65.9371 168.996 66.3324 169.457 66.7006C170.116 67.2313 170.475 68.2115 169.938 68.9665C168.928 70.398 166.799 69.0232 166.263 67.8245Z" fill="#004236"/>
<path d="M117.728 74.0615C118.648 74.4783 119.512 74.3608 120.289 73.9639C119.974 74.0771 119.653 73.9769 119.442 73.7599C119.247 73.6652 119.098 73.466 119.072 73.2406C119.068 73.2151 119.067 73.1891 119.069 73.165C119.056 73.1103 119.048 73.057 119.047 73.0012C118.573 73.286 118.127 73.6161 117.665 73.9697C117.632 73.997 117.593 73.9468 117.612 73.915C118.629 72.0628 121.147 71.0618 123.178 71.3566C123.409 71.3897 123.504 71.6903 123.355 71.863C122.486 72.8628 121.689 73.9694 120.439 74.517C119.978 74.7185 119.482 74.8396 118.979 74.8494C118.416 74.8571 118.012 74.7111 117.544 74.4136C117.355 74.2944 117.521 73.968 117.728 74.0615ZM122.492 71.9884C121.803 72.0206 121.128 72.1114 120.466 72.3329C120.724 72.4353 120.951 72.6328 121.018 72.8961C121.07 73.0888 121.026 73.2892 120.838 73.3898L120.834 73.3902C120.786 73.5589 120.681 73.7132 120.538 73.8254C121.292 73.3768 121.955 72.6814 122.492 71.9884Z" fill="#004236"/>
<path d="M136.602 71.4496C137.445 71.4202 138.188 71.5786 138.9 72.036C139.023 72.1158 138.938 72.3482 138.79 72.2848C138.094 71.9938 137.34 71.7425 136.589 71.6429C136.468 71.6269 136.477 71.452 136.602 71.4496Z" fill="#F8F3E8"/>
<path d="M137.962 74.7923C138.623 74.8728 139.285 74.9533 139.948 75.0277C140.154 75.0512 140.103 75.3922 139.906 75.3437C139.256 75.1921 138.601 75.051 137.949 74.9056C137.88 74.8924 137.887 74.7817 137.962 74.7923Z" fill="#F8F3E8"/>
<path d="M140.552 69.2292C140.781 69.2566 141.009 69.2839 141.238 69.3113C141.436 69.3357 141.619 69.3475 141.803 69.4333C141.918 69.4879 141.87 69.6746 141.747 69.6748C141.557 69.6796 141.403 69.6188 141.224 69.5626C140.991 69.4877 140.76 69.4146 140.525 69.3419C140.463 69.32 140.489 69.2214 140.552 69.2292Z" fill="#F8F3E8"/>
<path d="M140.753 66.6661C140.972 66.6125 141.192 66.5606 141.411 66.507C141.671 66.4433 141.903 66.4263 142.172 66.4317C142.362 66.4349 142.335 66.6975 142.179 66.7409C141.936 66.807 141.731 66.8392 141.479 66.8362C141.245 66.8334 141.013 66.8324 140.781 66.8313C140.685 66.8328 140.657 66.6896 140.753 66.6661Z" fill="#F8F3E8"/>
<path d="M139.505 62.0729C140.29 62.0512 141.125 61.9386 141.905 62.0513C142.134 62.0826 142.142 62.4498 141.899 62.4658C141.11 62.5139 140.272 62.3209 139.49 62.2323C139.399 62.2194 139.417 62.0736 139.505 62.0729Z" fill="#F8F3E8"/>
<path d="M135.727 60.2774C136.244 59.9763 136.778 59.8715 137.367 59.9692C137.59 60.0071 137.509 60.367 137.286 60.3151C136.791 60.2001 136.246 60.2041 135.758 60.3503C135.714 60.3647 135.687 60.2993 135.727 60.2774Z" fill="#F8F3E8"/>
<path d="M143.709 58.6397L144.477 58.5197C144.523 58.5132 144.543 58.5812 144.498 58.5877L143.733 58.7174C143.68 58.7286 143.658 58.6488 143.709 58.6397Z" fill="#F8F3E8"/>
<path d="M139.121 58.3001C139.866 58.1684 140.65 58.0908 141.388 58.2856C141.612 58.3454 141.514 58.721 141.29 58.6792C140.568 58.5448 139.889 58.392 139.149 58.4653C139.052 58.4729 139.027 58.3174 139.121 58.3001Z" fill="#F8F3E8"/>
<path d="M141.491 56.7577C142.348 56.6889 143.202 56.6143 144.061 56.5693C144.236 56.5599 144.235 56.84 144.06 56.8453C143.207 56.8698 142.353 56.8643 141.497 56.865C141.437 56.863 141.431 56.7635 141.491 56.7577Z" fill="#F8F3E8"/>
<path d="M136.066 63.601C136.378 63.5002 136.746 63.5077 137.07 63.4896C137.422 63.4688 137.772 63.4681 138.12 63.5137C138.325 63.5394 138.281 63.8356 138.093 63.8562C137.797 63.8896 137.501 63.8909 137.204 63.8763C136.844 63.8579 136.414 63.8584 136.072 63.7484C136.01 63.7265 135.986 63.6269 136.066 63.601Z" fill="#F8F3E8"/>
<path d="M136.76 66.2436C137.179 66.2702 137.596 66.2849 138.013 66.2996C138.218 66.3074 138.173 66.6576 137.971 66.6156C137.566 66.5338 137.157 66.4643 136.747 66.4009C136.656 66.3879 136.67 66.2386 136.76 66.2436Z" fill="#F8F3E8"/>
<path d="M136.015 68.7825C136.585 68.8241 137.154 68.8397 137.713 68.9484C137.816 68.9682 137.785 69.1353 137.682 69.1314C137.115 69.1136 136.556 69.0009 135.994 68.9146C135.907 68.9012 135.929 68.7771 136.015 68.7825Z" fill="#F8F3E8"/>
<path d="M139.897 77.7761C140.12 77.85 140.342 77.9199 140.567 77.9917C140.687 78.0318 140.62 78.2244 140.505 78.1778C140.284 78.0837 140.065 77.9913 139.844 77.8972C139.761 77.8655 139.816 77.7501 139.897 77.7761Z" fill="#F8F3E8"/>
<path d="M136.749 79.423C137.322 79.4523 138.003 79.5749 138.425 79.987C138.524 80.0832 138.408 80.2686 138.277 80.2196C138.012 80.1179 137.778 79.959 137.516 79.8451C137.265 79.7379 137.005 79.6657 136.736 79.6163C136.616 79.5982 136.621 79.4158 136.749 79.423Z" fill="#F8F3E8"/>
<path d="M140.207 82.4038C140.794 82.5397 141.367 82.7668 141.84 83.148C141.929 83.2211 141.842 83.3757 141.739 83.3059C141.247 82.9746 140.75 82.6899 140.18 82.5165C140.116 82.4968 140.142 82.3903 140.207 82.4038Z" fill="#F8F3E8"/>
<path d="M143.179 75.6816C143.726 75.7194 144.272 75.7374 144.81 75.8401C144.954 75.8678 144.928 76.1163 144.779 76.1031C144.228 76.0516 143.697 75.9063 143.159 75.7855C143.098 75.7716 143.121 75.6774 143.179 75.6816Z" fill="#F8F3E8"/>
<path d="M143.312 71.2536C143.923 71.2851 144.521 71.3499 145.126 71.45C145.461 71.5068 145.356 72.051 145.032 71.9671C144.439 71.8118 143.865 71.6387 143.294 71.4213C143.211 71.3895 143.207 71.2479 143.312 71.2536Z" fill="#F8F3E8"/>
<path d="M144.337 67.5332C144.842 67.5731 145.328 67.619 145.826 67.7217C145.979 67.7526 145.934 67.9709 145.785 67.9577C145.287 67.917 144.812 67.8361 144.322 67.7366C144.194 67.7113 144.201 67.5206 144.337 67.5332Z" fill="#F8F3E8"/>
<path d="M143.569 64.6959C143.762 64.7228 143.958 64.7493 144.151 64.7763C144.343 64.8032 144.317 65.1097 144.126 65.0767C143.925 65.0426 143.721 65.0067 143.52 64.9727C143.366 64.9479 143.409 64.6737 143.569 64.6959Z" fill="#F8F3E8"/>
<path d="M184.883 92.1457C184.813 91.0529 185.764 90.237 186.829 90.3175C187.939 90.4016 188.659 91.2961 189.103 92.2339C189.512 92.8292 189.885 93.5182 189.536 94.1985C188.46 96.3005 184.989 93.8268 184.883 92.1457Z" fill="#004236"/>
<path d="M172.726 115.109C172.657 114.542 173.059 114.026 173.649 114.026C173.999 114.025 174.381 114.215 174.708 114.433C174.886 114.495 175.048 114.585 175.171 114.683C175.687 115.1 175.62 115.832 175.092 116.204C174.69 116.486 174.202 116.425 173.781 116.224C173.316 116.006 172.795 115.658 172.726 115.109Z" fill="#004236"/>
<path d="M182.088 112.921C181.5 112.405 181.302 111.469 181.797 110.814C182.465 109.926 183.679 110.228 184.517 110.643C185.308 111.035 186.477 111.733 186.387 112.763C186.294 113.796 185.164 114.14 184.285 114.027C183.63 113.944 182.944 113.636 182.437 113.164C182.317 113.098 182.197 113.018 182.088 112.921Z" fill="#004236"/>
<path d="M192.14 77.865C191.787 77.1881 191.927 76.3664 192.648 76.0032C193.43 75.6099 194.327 76.0269 194.932 76.5529C195.218 76.8026 195.537 77.1748 195.739 77.5848C196.043 78.0685 196.196 78.6132 196.08 79.0506C195.544 81.0971 192.635 78.8117 192.14 77.865Z" fill="#004236"/>
<path d="M194.292 86.024C194.493 85.8321 194.785 85.7292 195.064 85.7616C195.203 85.7778 195.33 85.8233 195.442 85.8862C196.019 86.1529 196.656 86.8697 196.124 87.4902C195.711 87.9749 195.037 87.8297 194.566 87.5224C194.065 87.1942 193.793 86.4972 194.292 86.024Z" fill="#004236"/>
<path d="M194.884 96.2165C194.934 95.9876 195.032 95.798 195.161 95.6492C195.367 95.1509 195.994 94.8529 196.553 94.8856C197.633 94.9487 198.826 95.7944 199.494 96.596C200.132 97.3567 200.099 98.4936 199.102 98.9282C198.296 99.2799 197.253 98.8932 196.533 98.5126C195.701 98.0731 194.653 97.2991 194.884 96.2165Z" fill="#004236"/>
<path d="M154.868 182.497C155.268 182.395 155.732 182.481 156.14 182.521C156.564 182.563 156.946 182.607 157.354 182.739C157.426 182.762 157.419 182.89 157.344 182.906C156.92 183.002 156.533 183.008 156.099 183.009C155.707 183.008 155.236 183.058 154.867 182.919C154.674 182.848 154.644 182.557 154.868 182.497Z" fill="#F8F3E8"/>
<path d="M151.755 186.718C152.098 186.54 152.492 186.591 152.861 186.642C153.264 186.696 153.665 186.753 154.066 186.809C154.21 186.829 154.157 187.026 154.035 187.042C153.642 187.087 153.246 187.13 152.852 187.175C152.492 187.215 152.091 187.256 151.762 187.081C151.633 187.008 151.614 186.792 151.755 186.718Z" fill="#F8F3E8"/>
<path d="M160.878 186.941C161.448 186.928 162.017 187.024 162.581 187.108C162.652 187.119 162.641 187.216 162.571 187.217C162.002 187.219 161.425 187.23 160.861 187.138C160.749 187.119 160.764 186.942 160.878 186.941Z" fill="#F8F3E8"/>
<path d="M155.873 192.047C156.148 191.956 156.432 192.026 156.709 192.074C157.022 192.127 157.333 192.183 157.646 192.236C157.745 192.252 157.741 192.412 157.635 192.417C157.32 192.424 157.007 192.429 156.692 192.436C156.425 192.442 156.12 192.477 155.876 192.349C155.764 192.29 155.725 192.094 155.873 192.047Z" fill="#F8F3E8"/>
<path d="M148.767 179.032C149.184 179.002 149.63 179.19 150.024 179.321C150.464 179.468 150.888 179.67 151.323 179.831C151.402 179.859 151.367 179.98 151.284 179.97C150.831 179.907 150.364 179.881 149.911 179.804C149.488 179.73 149.007 179.678 148.64 179.452C148.434 179.327 148.553 179.045 148.767 179.032Z" fill="#F8F3E8"/>
<path d="M144.43 182.776C145.236 182.898 146.046 183.302 146.819 183.561C146.867 183.578 146.854 183.656 146.801 183.649C146.006 183.55 145.093 183.572 144.328 183.33C143.992 183.225 144.061 182.72 144.43 182.776Z" fill="#F8F3E8"/>
<path d="M147.428 190.003C147.713 189.825 148.102 189.909 148.425 189.937C148.875 189.978 149.392 190.035 149.8 190.224C149.915 190.279 149.857 190.447 149.756 190.473C149.374 190.575 148.973 190.54 148.582 190.533C148.218 190.525 147.695 190.555 147.413 190.305C147.321 190.226 147.322 190.07 147.428 190.003Z" fill="#F8F3E8"/>
<path d="M139.934 185.922C140.395 185.991 140.841 186.164 141.286 186.3C141.455 186.352 141.373 186.602 141.203 186.56C140.761 186.452 140.298 186.378 139.877 186.204C139.732 186.146 139.762 185.897 139.934 185.922Z" fill="#F8F3E8"/>
<path d="M142.609 176.322C143.354 176.606 144.097 176.889 144.84 177.175C144.99 177.232 144.928 177.466 144.77 177.42C144.016 177.191 143.262 176.957 142.506 176.73C142.247 176.648 142.362 176.229 142.609 176.322Z" fill="#F8F3E8"/>
<path d="M150.842 175.069C151.477 175.164 152.07 175.364 152.681 175.549C152.751 175.57 152.722 175.681 152.653 175.672C152.028 175.578 151.411 175.501 150.806 175.317C150.67 175.278 150.696 175.048 150.842 175.069Z" fill="#F8F3E8"/>
<path d="M156.252 178.773C156.39 178.729 156.528 178.671 156.673 178.677C156.861 178.682 157.048 178.752 157.238 178.773C157.555 178.808 157.892 178.8 158.197 178.894C158.335 178.938 158.331 179.169 158.194 179.212C157.897 179.304 157.574 179.294 157.265 179.324C157.063 179.344 156.851 179.421 156.65 179.417C156.5 179.414 156.356 179.354 156.217 179.302C155.973 179.218 156.031 178.843 156.252 178.773Z" fill="#F8F3E8"/>
<path d="M161.246 175.831C161.666 175.692 162.071 175.704 162.512 175.694C162.965 175.683 163.406 175.674 163.856 175.719C163.926 175.726 163.943 175.838 163.873 175.857C163.438 175.992 163.002 176.063 162.554 176.148C162.108 176.23 161.695 176.321 161.241 176.254C161.009 176.217 161.064 175.889 161.246 175.831Z" fill="#F8F3E8"/>
<path d="M163.069 181.283C163.461 181.117 164.001 181.127 164.428 181.135C164.911 181.145 165.395 181.189 165.877 181.213C166.031 181.22 166.049 181.446 165.899 181.483C165.396 181.599 164.893 181.747 164.385 181.833C163.98 181.901 163.515 181.997 163.114 181.901C162.832 181.837 162.813 181.391 163.069 181.283Z" fill="#F8F3E8"/>
<path d="M168.441 186.582C168.435 186.373 168.57 186.283 168.725 186.184C169.073 185.96 169.61 186.041 170.007 186.045C170.415 186.049 170.826 186.102 171.235 186.14C171.439 186.158 171.431 186.472 171.252 186.526C170.811 186.652 170.371 186.797 169.921 186.88C169.53 186.952 169.14 187.073 168.751 186.957C168.578 186.906 168.449 186.767 168.441 186.582Z" fill="#F8F3E8"/>
<path d="M164.076 192.145C165.08 192.277 166.098 192.216 167.099 192.087C167.204 192.075 167.23 192.228 167.136 192.264C166.138 192.628 165.101 192.703 164.045 192.615C163.745 192.591 163.778 192.104 164.076 192.145Z" fill="#F8F3E8"/>
<path d="M173.45 190.247C174.165 190.112 174.887 190.079 175.611 190.021C175.986 189.99 176.015 190.557 175.647 190.601C174.934 190.686 174.218 190.809 173.498 190.808C173.134 190.808 173.093 190.314 173.45 190.247Z" fill="#F8F3E8"/>
<path d="M172.182 181.053C172.509 180.877 172.935 180.903 173.296 180.871C173.669 180.842 174.042 180.813 174.417 180.782C174.518 180.774 174.553 180.927 174.454 180.958C174.064 181.079 173.674 181.204 173.283 181.32C172.949 181.421 172.614 181.572 172.26 181.533C172 181.509 171.965 181.171 172.182 181.053Z" fill="#F8F3E8"/>
<path d="M170.302 173.829C170.755 173.676 171.264 173.712 171.738 173.689C172.176 173.666 172.615 173.644 173.055 173.623C173.222 173.614 173.23 173.879 173.071 173.909C172.588 174.001 172.105 174.092 171.622 174.184C171.2 174.264 170.792 174.384 170.362 174.349C170.095 174.329 170.055 173.913 170.302 173.829Z" fill="#F8F3E8"/>
<path d="M180.055 169.391C180.564 169.094 181.075 168.734 181.629 168.529C181.708 168.499 181.795 168.611 181.729 168.673C181.307 169.081 180.76 169.379 180.271 169.703C180.065 169.844 179.845 169.514 180.055 169.391Z" fill="#F8F3E8"/>
<path d="M179.063 175.563C179.487 175.353 180.029 175.344 180.484 175.251C180.872 175.172 181.262 175.092 181.648 175.011C181.784 174.984 181.846 175.178 181.709 175.221C181.274 175.356 180.843 175.491 180.411 175.628C180.007 175.756 179.586 175.971 179.162 175.991C178.937 175.999 178.866 175.661 179.063 175.563Z" fill="#F8F3E8"/>
<path d="M178.904 183.643C179.178 183.372 179.515 183.365 179.878 183.291C180.331 183.2 180.78 183.069 181.227 182.959C181.364 182.926 181.418 183.116 181.287 183.169C180.931 183.31 180.571 183.452 180.217 183.599C179.824 183.764 179.447 184.049 179.008 183.973C178.866 183.947 178.8 183.747 178.904 183.643Z" fill="#F8F3E8"/>
<path d="M181.837 189.573C182.412 189.24 183.117 189.108 183.746 188.914C184.428 188.705 185.11 188.507 185.793 188.31C185.927 188.27 186.018 188.487 185.883 188.545C185.263 188.808 184.643 189.071 184.018 189.327C183.377 189.588 182.711 189.948 182.026 190.064C181.774 190.105 181.6 189.71 181.837 189.573Z" fill="#F8F3E8"/>
<path d="M188.283 182.975C188.624 182.759 188.992 182.613 189.366 182.468C189.797 182.297 190.195 182.118 190.658 182.06C190.788 182.043 190.878 182.194 190.778 182.294C190.47 182.602 190.121 182.801 189.749 183.02C189.389 183.231 189.033 183.456 188.643 183.599C188.274 183.733 187.919 183.205 188.283 182.975Z" fill="#F8F3E8"/>
<path d="M185.814 177.025C186.455 176.515 187.379 176.582 188.149 176.548C188.245 176.542 188.298 176.681 188.209 176.732C187.576 177.09 186.803 177.659 186.035 177.571C185.792 177.543 185.575 177.214 185.814 177.025Z" fill="#F8F3E8"/>
<path d="M189.103 169.727C189.251 169.498 189.486 169.389 189.712 169.247C189.97 169.083 190.241 168.945 190.513 168.808C190.605 168.763 190.732 168.874 190.642 168.957C190.426 169.162 190.214 169.371 189.978 169.556C189.775 169.714 189.586 169.927 189.334 169.99C189.196 170.026 189.002 169.881 189.103 169.727Z" fill="#F8F3E8"/>
<path d="M193.625 175.618C194.543 175.111 195.444 174.608 196.393 174.158C196.547 174.085 196.693 174.307 196.555 174.416C195.746 175.064 194.905 175.653 194.055 176.245C193.649 176.531 193.203 175.852 193.625 175.618Z" fill="#F8F3E8"/>
<path d="M197.099 179.969C197.368 179.614 197.914 179.556 198.316 179.426C198.779 179.279 199.268 179.21 199.745 179.117C199.922 179.083 200.014 179.352 199.869 179.445C199.458 179.705 199.051 179.987 198.616 180.202C198.193 180.412 197.778 180.713 197.295 180.633C196.968 180.58 196.932 180.189 197.099 179.969Z" fill="#F8F3E8"/>
<path d="M136.302 180.281C136.235 180.186 136.287 180.039 136.381 179.981C136.763 179.756 137.255 180.087 137.591 180.294C137.954 180.516 138.218 180.765 138.446 181.125C138.498 181.204 138.405 181.321 138.318 181.267C137.985 181.066 137.637 180.853 137.273 180.711C136.932 180.577 136.52 180.596 136.302 180.281Z" fill="#F8F3E8"/>
<path d="M130.254 182.262C129.974 181.991 130.364 181.579 130.663 181.821C131.414 182.435 132.052 183.221 132.712 183.932C132.777 184.003 132.666 184.094 132.595 184.043C131.81 183.471 130.955 182.936 130.254 182.262Z" fill="#F8F3E8"/>
<path d="M140.593 171.893C140.493 171.789 140.524 171.548 140.705 171.558C141.068 171.576 141.396 171.809 141.715 171.984C142.057 172.174 142.391 172.383 142.724 172.584C142.801 172.628 142.725 172.733 142.654 172.708C142.242 172.573 141.828 172.448 141.423 172.294C141.135 172.185 140.815 172.119 140.593 171.893Z" fill="#F8F3E8"/>
<path d="M135.365 174.226C135.286 174.07 135.394 173.893 135.575 173.921C135.904 173.972 136.14 174.225 136.387 174.438C136.727 174.737 137.048 175.059 137.376 175.368C137.429 175.419 137.382 175.538 137.306 175.493C136.926 175.287 136.539 175.085 136.166 174.866C135.872 174.697 135.52 174.536 135.365 174.226Z" fill="#F8F3E8"/>
<path d="M129.295 174.802C129.13 174.535 129.451 174.219 129.705 174.424C130.35 174.94 130.843 175.783 131.272 176.482C131.306 176.539 131.246 176.621 131.185 176.575C130.541 176.075 129.732 175.501 129.295 174.802Z" fill="#F8F3E8"/>
<path d="M133.657 169.82C133.516 169.69 133.638 169.422 133.833 169.477C134.191 169.577 134.438 169.799 134.729 170.02C135.145 170.333 135.583 170.601 136.023 170.876C136.064 170.902 136.025 170.957 135.983 170.938C135.555 170.724 135.129 170.494 134.681 170.327C134.312 170.191 133.951 170.091 133.657 169.82Z" fill="#F8F3E8"/>
<path d="M128.036 168.355C128.485 168.764 128.877 169.239 129.292 169.682C129.334 169.728 129.268 169.794 129.219 169.761C128.704 169.44 128.16 169.146 127.672 168.785C127.385 168.571 127.769 168.109 128.036 168.355Z" fill="#F8F3E8"/>
<path d="M126.154 177.589C125.781 176.808 125.268 176.161 124.593 175.62C124.322 175.404 124.674 174.968 124.912 175.2C125.58 175.852 126.064 176.614 126.371 177.497C126.413 177.623 126.211 177.709 126.154 177.589Z" fill="#F8F3E8"/>
<path d="M203.483 120.555C203.459 119.787 204.147 119.251 204.882 119.389C205.252 119.456 205.586 119.661 205.877 119.926C206.733 120.421 207.324 121.556 206.834 122.423C205.904 124.066 203.524 121.788 203.483 120.555Z" fill="#004236"/>
<path d="M186.735 130.392C186.372 129.448 186.746 128.246 187.825 127.995C188.13 127.925 188.43 127.945 188.72 128.03C190.107 128.033 191.768 129.606 191.619 130.942C191.492 132.097 190.275 132.635 189.232 132.452C188.142 132.264 187.13 131.421 186.735 130.392Z" fill="#004236"/>
<path d="M174.431 135.954C174.079 135.595 173.759 134.967 174.1 134.504C174.172 134.406 174.263 134.331 174.368 134.283C174.796 133.603 175.975 133.758 176.41 134.419C176.874 135.125 176.446 136.115 175.635 136.313C175.198 136.424 174.742 136.272 174.431 135.954Z" fill="#004236"/>
<path d="M183.905 141.065C183.996 140.866 184.23 140.745 184.446 140.722C184.603 140.646 184.781 140.615 184.958 140.625C185.815 140.676 187.049 141.414 186.888 142.412C186.725 143.397 185.701 143.439 184.945 143.164C184.044 142.835 183.484 141.999 183.905 141.065Z" fill="#004236"/>
<path d="M199.191 136.703C198.916 136.4 198.813 136.127 198.798 135.804C198.704 135.592 198.663 135.358 198.71 135.115C198.999 133.591 200.857 134.057 201.704 134.739C202.216 135.152 202.715 135.774 202.791 136.453C202.867 137.143 202.405 137.763 201.711 137.841C201.088 137.913 200.386 137.573 199.881 137.249C199.634 137.093 199.387 136.916 199.191 136.703Z" fill="#004236"/>
<path d="M215.238 119.221C215.173 119.168 215.113 119.104 215.058 119.025C215.004 118.949 214.96 118.865 214.93 118.778C214.923 118.765 214.914 118.754 214.908 118.742C214.817 118.579 214.82 118.407 214.884 118.259C214.912 118.118 214.973 117.986 215.078 117.872C215.698 117.21 216.719 117.765 217.172 118.334C217.383 118.599 217.592 118.956 217.584 119.307C217.576 119.746 217.233 120.092 216.789 120.088C216.179 120.078 215.63 119.693 215.238 119.221Z" fill="#004236"/>
<path d="M132.234 86.0293C132.637 86.1274 133.127 86.2308 133.446 86.5072C133.55 86.5969 133.443 86.7754 133.314 86.7382C132.917 86.6235 132.557 86.3532 132.172 86.1974C132.079 86.1567 132.136 86.007 132.234 86.0293Z" fill="#F8F3E8"/>
<path d="M128.845 83.2393C129.146 83.3555 129.465 83.4539 129.745 83.6142C129.844 83.6703 129.77 83.8356 129.662 83.7983C129.36 83.6882 129.078 83.5042 128.794 83.3504C128.734 83.3163 128.781 83.2157 128.845 83.2393Z" fill="#F8F3E8"/>
<path d="M137.334 79.5643C137.673 79.6348 138.012 79.6912 138.336 79.819C138.469 79.8699 138.397 80.0809 138.259 80.0546C137.918 79.9863 137.603 79.8476 137.281 79.7215C137.19 79.6905 137.242 79.5474 137.334 79.5643Z" fill="#F8F3E8"/>
<path d="M130.11 76.3939C130.4 76.3992 130.674 76.544 130.942 76.6475C131.237 76.7623 131.526 76.8836 131.815 77.015C131.947 77.0759 131.872 77.2733 131.733 77.225C131.444 77.1257 131.162 77.0216 130.879 76.9057C130.602 76.7911 130.288 76.7042 130.062 76.4967C130.022 76.4566 130.06 76.3929 130.11 76.3939Z" fill="#F8F3E8"/>
<path d="M103.468 83.6796C104.643 83.1095 106.196 82.9418 107.481 83.1045C107.665 83.1283 107.659 83.3928 107.471 83.3954C106.784 83.4034 106.103 83.4269 105.427 83.5458C104.801 83.6556 104.21 83.8701 103.598 84.0306C103.392 84.087 103.275 83.7726 103.468 83.6796Z" fill="#F8F3E8"/>
<path d="M104.189 85.3517C105.243 84.9195 106.432 84.8138 107.543 84.6219C107.585 84.6158 107.599 84.6784 107.558 84.6924C106.502 85.0788 105.421 85.5837 104.298 85.7368C104.073 85.767 103.97 85.4414 104.189 85.3517Z" fill="#F8F3E8"/>
<path d="M105.047 86.9865C106.134 86.589 107.232 86.2044 108.33 85.8378C108.392 85.8157 108.423 85.9106 108.37 85.9438C107.358 86.5339 106.243 86.9781 105.1 87.2312C104.961 87.2589 104.917 87.0333 105.047 86.9865Z" fill="#F8F3E8"/>
<path d="M114.044 79.7537C115.337 78.872 117.088 78.1088 118.648 77.9324C118.913 77.9022 118.936 78.2818 118.716 78.3675C117.924 78.6719 117.076 78.8358 116.27 79.1035C115.54 79.3457 114.819 79.621 114.083 79.8478C114.023 79.8677 113.995 79.7865 114.044 79.7537Z" fill="#F8F3E8"/>
<path d="M115.31 81.2939C115.871 80.8944 116.492 80.639 117.163 80.4787C117.811 80.3225 118.696 80.171 119.318 80.4594C119.493 80.5419 119.446 80.8346 119.262 80.8728C118.684 80.996 118.042 80.8555 117.448 80.9064C116.73 80.9694 116.033 81.1443 115.343 81.3466C115.307 81.3602 115.276 81.3172 115.31 81.2939Z" fill="#F8F3E8"/>
<path d="M116.455 82.8003C117.677 82.4374 119.064 82.3442 120.287 82.7369C120.499 82.8059 120.422 83.1395 120.202 83.1193C118.956 83.0106 117.746 82.8844 116.491 82.9467C116.414 82.9523 116.368 82.8269 116.455 82.8003Z" fill="#F8F3E8"/>
<path d="M128.444 80.3459C129.039 80.6309 129.594 80.9079 130.131 81.2947C130.249 81.3809 130.116 81.5741 129.985 81.507C129.404 81.2006 128.904 80.8262 128.386 80.4256C128.344 80.3917 128.396 80.3247 128.444 80.3459Z" fill="#F8F3E8"/>
<path d="M128.291 87.3033C128.248 87.2495 128.315 87.1589 128.374 87.2071C128.87 87.6079 129.434 87.8819 129.976 88.2102C130.105 88.2874 130.026 88.5072 129.874 88.4622C129.22 88.275 128.715 87.8232 128.291 87.3033Z" fill="#F8F3E8"/>
<path d="M130.502 91.9112C130.326 91.7588 130.103 91.6229 130.019 91.3972C130 91.3491 130.035 91.2976 130.088 91.3004C130.333 91.3122 130.529 91.4807 130.735 91.6063C130.962 91.7458 131.184 91.8917 131.381 92.0682C131.569 92.2375 131.369 92.5253 131.15 92.389C130.919 92.2499 130.707 92.0869 130.502 91.9112Z" fill="#F8F3E8"/>
<path d="M134.555 88.087C134.517 88.0448 134.564 87.9702 134.617 88.0029C134.974 88.2195 135.422 88.4491 135.694 88.7681C135.803 88.8933 135.656 89.0718 135.512 88.9901C135.146 88.7804 134.835 88.3933 134.555 88.087Z" fill="#F8F3E8"/>
<path d="M126.505 84.8468C126.481 84.8012 126.525 84.7429 126.574 84.75C126.785 84.7811 126.983 84.9295 127.157 85.0402C127.328 85.1473 127.481 85.2621 127.631 85.3932C127.775 85.5149 127.635 85.7427 127.463 85.6417C127.298 85.5422 127.142 85.4436 126.991 85.3226C126.826 85.187 126.606 85.0388 126.505 84.8468Z" fill="#F8F3E8"/>
<path d="M125.748 96.7784C125.715 96.7476 125.756 96.6936 125.795 96.7218C126.288 97.0728 126.821 97.398 127.252 97.8252C127.347 97.9178 127.201 98.0602 127.1 97.9882C126.603 97.6455 126.182 97.1894 125.748 96.7784Z" fill="#F8F3E8"/>
<path d="M123.911 97.6321C123.568 97.1962 123.165 96.7522 122.908 96.2598C122.876 96.201 122.959 96.1308 123.009 96.1758C123.431 96.5299 123.768 97.0105 124.112 97.4362C124.226 97.577 124.023 97.775 123.911 97.6321Z" fill="#F8F3E8"/>
<path d="M122.607 97.7494C122.587 97.7254 122.624 97.6937 122.644 97.7177C122.83 97.9433 123.016 98.1689 123.201 98.3944C123.226 98.422 123.182 98.4584 123.157 98.4308L122.607 97.7494Z" fill="#F8F3E8"/>
<path d="M121.248 97.7259C121.114 97.4952 120.977 97.2628 120.843 97.0321C120.795 96.9489 120.908 96.8557 120.966 96.9399C121.12 97.1686 121.272 97.3995 121.426 97.6282C121.495 97.7354 121.313 97.8374 121.248 97.7259Z" fill="#F8F3E8"/>
<path d="M119.68 98.053C119.626 97.9904 119.72 97.9071 119.776 97.9676C120.058 98.2576 120.345 98.545 120.624 98.8394C120.717 98.9381 120.557 99.0839 120.467 98.9808C120.202 98.6752 119.942 98.363 119.68 98.053Z" fill="#F8F3E8"/>
<path d="M122.246 100.322C122.051 100.002 121.808 99.7178 121.501 99.5022C121.471 99.4812 121.5 99.4284 121.532 99.4472C121.889 99.6317 122.175 99.8774 122.375 100.228C122.429 100.316 122.3 100.411 122.246 100.322Z" fill="#F8F3E8"/>
<path d="M120.643 101.193C120.484 100.899 120.312 100.608 120.173 100.304C120.17 100.294 120.179 100.287 120.186 100.296C120.386 100.566 120.56 100.855 120.741 101.139C120.783 101.199 120.681 101.257 120.643 101.193Z" fill="#F8F3E8"/>
<path d="M124.968 89.5977C124.927 89.5498 124.984 89.4902 125.033 89.5273C125.433 89.8196 125.826 90.1026 126.18 90.4516C126.31 90.5806 126.114 90.766 125.977 90.6496C125.606 90.3304 125.291 89.9656 124.968 89.5977Z" fill="#F8F3E8"/>
<path d="M127.683 92.362C127.655 92.3168 127.71 92.2634 127.754 92.289C128.104 92.4923 128.396 92.8053 128.672 93.0979C128.757 93.1895 128.629 93.3141 128.533 93.2356C128.232 92.9735 127.904 92.7 127.683 92.362Z" fill="#F8F3E8"/>
<path d="M125.917 93.0105C126.517 93.1211 127.099 93.3954 127.475 93.8901C127.561 94.0014 127.41 94.1324 127.311 94.0323C126.893 93.6158 126.465 93.2822 125.899 93.0943C125.845 93.0796 125.86 93.0002 125.917 93.0105Z" fill="#F8F3E8"/>
<path d="M123.258 93.3018C123.208 93.2568 123.279 93.1878 123.331 93.2266C123.717 93.5223 124.113 93.8111 124.483 94.1263C124.57 94.2017 124.452 94.3273 124.364 94.2581C123.983 93.9519 123.625 93.6214 123.258 93.3018Z" fill="#F8F3E8"/>
<path d="M127.125 95.2366C127.085 95.2006 127.134 95.1458 127.177 95.1735C127.597 95.4718 128.042 95.7497 128.432 96.089C128.559 96.2004 128.391 96.383 128.261 96.2839C127.853 95.9703 127.495 95.5919 127.125 95.2366Z" fill="#F8F3E8"/>
<path d="M116.812 59.343C116.76 58.6364 116.781 57.9385 116.909 57.238C116.998 56.7454 117.096 55.8198 117.417 55.4382C117.733 55.063 118.089 55.3337 118.403 55.5586C119.062 56.0352 119.926 56.6355 120.2 57.4302C120.217 57.4844 120.166 57.5555 120.106 57.5275C119.615 57.2921 117.909 55.2876 117.465 55.6594C117.361 55.7457 117.312 56.1025 117.273 56.2462C117.17 56.6424 117.123 57.0529 117.101 57.461C117.065 58.0663 117.108 58.674 117.201 59.2725C117.242 59.5284 116.83 59.5912 116.812 59.343Z" fill="#F8F3E8"/>
<path d="M97.7118 68.6695C97.3222 68.0502 97.063 67.3521 96.9082 66.6376C96.8361 66.3048 96.5607 65.3963 96.8613 65.1147C97.1384 64.8573 98.0856 65.2894 98.3379 65.3984C99.0091 65.6839 99.7191 66.0815 100.179 66.6598C100.222 66.7136 100.165 66.7832 100.102 66.7534C99.2262 66.3182 98.4239 65.7098 97.4565 65.4616C96.6961 65.267 97.1774 66.403 97.2969 66.7711C97.4856 67.3603 97.767 67.8943 98.0645 68.4307C98.1995 68.6692 97.8604 68.9047 97.7118 68.6695Z" fill="#F8F3E8"/>
<path d="M155.1 70.6397C155.397 70.1945 155.962 70.0465 156.47 70.1502C156.5 70.1532 156.533 70.1541 156.561 70.1592C157.167 70.2452 157.817 70.5348 158.03 71.1516C158.232 71.7334 157.955 72.3446 157.367 72.5508C156.793 72.7496 156.032 72.591 155.537 72.2641C155.02 71.9194 154.732 71.1941 155.1 70.6397Z" fill="#004236"/>
<path d="M154.013 64.1152C153.994 63.9752 154.081 63.8466 154.206 63.7883C154.59 63.6083 154.989 63.4988 155.388 63.6952C155.753 63.875 155.982 64.2603 155.892 64.6671C155.752 65.2928 155.048 65.3964 154.682 65.0768C154.309 64.8798 154.074 64.5331 154.013 64.1152Z" fill="#004236"/>
<path d="M155.2 57.9711C154.909 57.5821 154.879 57.2071 155.01 56.8922C155.004 56.6868 155.062 56.4791 155.192 56.2904C155.61 55.6892 156.536 55.6374 157.19 55.7368C157.889 55.8415 158.556 56.2834 158.661 57.0267C158.899 58.7247 156.013 59.0584 155.2 57.9711Z" fill="#004236"/>
<path d="M168.393 63.7055C167.968 62.9957 168.414 62.2537 169.071 61.9548C169.234 61.8148 169.433 61.709 169.65 61.6576C170.575 61.4361 171.8 62.1406 172.204 62.9764C172.633 63.8617 172.029 64.8132 171.041 64.745C170.548 64.7118 170.046 64.5616 169.572 64.4346C169.112 64.3081 168.647 64.1302 168.393 63.7055Z" fill="#004236"/>
<path d="M179.855 71.3406C179.799 71.2322 179.76 71.1201 179.737 71.0064C179.492 70.6447 179.518 70.2463 180.039 69.8728C180.701 69.3994 181.718 69.7826 182.358 70.1012C182.952 70.3963 183.677 70.9083 183.511 71.6766C183.152 73.3177 180.398 72.3666 179.855 71.3406Z" fill="#004236"/>
<path d="M183.144 80.4567C183.083 80.2568 183.088 80.0564 183.144 79.8768C183.009 79.4483 183.226 78.981 183.643 78.7398C184.76 78.0934 185.986 79.3057 185.602 80.4414C185.22 81.5649 183.503 81.6229 183.144 80.4567Z" fill="#004236"/>
<path d="M163.283 87.965C163.395 87.714 163.659 87.5519 163.955 87.5326C164.422 87.5044 164.874 87.7595 165.199 88.0773C165.501 88.3733 165.738 88.8017 165.686 89.2368C165.63 89.7122 165.209 90.0557 164.724 89.9558C164.328 89.875 163.827 89.6087 163.512 89.364C163.03 88.9898 162.926 88.4083 163.283 87.965Z" fill="#004236"/>
<path d="M153.491 86.8128C153.145 86.1053 153.354 85.0589 154.159 84.9151C154.378 84.7815 154.639 84.7077 154.909 84.7109C155.916 84.7253 156.962 85.5336 157.288 86.473C157.631 87.4627 156.921 88.2688 155.914 88.2105C154.952 88.1558 153.933 87.7128 153.491 86.8128Z" fill="#004236"/>
<path d="M173.398 91.7027C173.414 91.4351 173.518 91.203 173.68 91.015C173.741 90.679 173.96 90.3774 174.308 90.215C175.034 89.8813 175.752 90.268 176.288 90.7628C176.894 91.3227 177.486 92.1339 177.064 92.9834C176.655 93.8076 175.732 93.7231 175.006 93.437C174.277 93.1512 173.345 92.6076 173.398 91.7027Z" fill="#004236"/>
<path d="M165.999 96.8796C166.166 96.5532 166.463 96.4078 166.777 96.4067C166.907 96.3678 167.045 96.3462 167.181 96.3408C167.872 96.3184 168.578 96.8403 168.787 97.4895C168.957 98.0165 168.782 98.6276 168.249 98.8643C167.667 99.1219 167.057 98.8104 166.609 98.4348C166.168 98.0686 165.697 97.4774 165.999 96.8796Z" fill="#004236"/>
<path d="M153.918 100.933C153.792 100.267 154.162 99.8127 154.678 99.6018C155.97 98.3442 159.214 99.8845 158.631 101.732C158.033 103.637 154.229 102.563 153.918 100.933Z" fill="#004236"/>
<path d="M146.871 95.8175C146.529 95.3615 146.544 94.7941 146.824 94.3786C146.825 94.3724 146.827 94.3663 146.826 94.3584C147.016 93.5078 148.07 93.4994 148.708 93.7242C149.556 94.0242 150.553 94.6134 150.808 95.5238C151.045 96.3641 150.284 96.9674 149.483 96.9146C148.672 96.8569 147.382 96.5007 146.871 95.8175Z" fill="#004236"/>
<path d="M146.068 105.075C146.054 105.016 146.046 104.955 146.048 104.891C146.051 104.241 146.75 103.961 147.295 104.074C147.888 104.193 148.572 104.489 148.758 105.116C148.92 105.654 148.647 106.225 148.102 106.397C147.664 106.536 147.106 106.384 146.717 106.166C146.321 105.943 146.031 105.526 146.068 105.075Z" fill="#004236"/>
<path d="M145.855 80.7441C145.519 80.2415 145.593 79.5804 146.114 79.3049C146.402 79.0705 146.844 78.9888 147.215 79.1119C147.612 79.2446 148.064 79.4958 148.401 79.7364C148.687 79.9421 148.909 80.2599 148.92 80.6228C148.942 81.3844 148.191 81.8506 147.496 81.7754C146.835 81.7028 146.222 81.2897 145.855 80.7441Z" fill="#004236"/>
<path d="M136.898 92.4859C137.056 92.1524 137.291 91.9512 137.559 91.8507C137.662 91.7645 137.786 91.6943 137.925 91.6485C139.581 91.1167 141.435 93.5925 139.728 94.7132C138.42 95.5785 136.172 94.0374 136.898 92.4859Z" fill="#004236"/>
<path d="M135.767 101.549C135.794 101.389 135.853 101.233 135.951 101.095C136.826 99.8849 138.989 101.174 138.945 102.436C138.887 103.994 136.749 103.48 135.999 102.83C135.617 102.498 135.519 101.962 135.767 101.549Z" fill="#004236"/>
<path d="M148.268 71.8479C148.031 71.6015 147.841 71.2924 147.737 70.9587C147.496 70.4767 147.581 69.8864 147.912 69.4398C148.885 68.1239 151.233 69.0951 151.412 70.581C151.492 71.2409 151.109 71.8746 150.549 72.202C149.8 72.644 148.866 72.4666 148.268 71.8479Z" fill="#004236"/>
<path d="M163.722 106.992C163.692 106.909 163.674 106.825 163.66 106.745C163.66 106.745 163.658 106.743 163.659 106.741C163.271 105.743 164.168 104.945 165.075 104.775C165.992 104.602 166.984 104.878 167.756 105.381C168.467 105.845 169.059 106.678 168.709 107.555C168.325 108.522 167.222 108.757 166.293 108.639C165.327 108.513 164.073 107.985 163.722 106.992Z" fill="#004236"/>
<path d="M153.473 113.653C153.442 113.288 153.553 112.986 153.755 112.776C153.854 112.566 154.036 112.394 154.307 112.307C154.99 112.088 155.873 112.65 156.282 113.157C156.711 113.693 156.785 114.479 156.36 115.045C155.361 116.372 153.578 114.885 153.473 113.653Z" fill="#004236"/>
<path d="M163.227 120.296C163.012 119.871 163.012 119.397 163.184 119.025C163.177 118.697 163.326 118.397 163.712 118.175C164.445 117.752 165.421 118.277 165.969 118.779C166.555 119.315 167.098 120.199 167.05 121.027C166.909 123.509 163.792 121.406 163.227 120.296Z" fill="#004236"/>
<path d="M176.537 103.551C176.639 103.077 176.937 102.781 177.318 102.636C177.663 102.292 178.178 102.099 178.697 102.127C180.113 102.205 182.26 104.17 180.471 105.351C179.239 106.159 176.126 105.463 176.537 103.551Z" fill="#004236"/>
<path d="M193.649 107.889C193.326 107.34 193.523 106.542 194.177 106.362C195.069 106.117 195.826 107.144 196.029 107.88C196.148 108.31 195.863 108.714 195.397 108.666C195.173 108.642 194.961 108.585 194.765 108.501C194.322 108.451 193.892 108.301 193.649 107.889Z" fill="#004236"/>
<path d="M207.059 94.5094C207.436 93.4804 208.899 94.1394 209.444 94.6533C209.941 95.12 210.34 96.0902 209.459 96.4093C209.025 96.5663 208.575 96.4048 208.197 96.1303C207.515 95.832 206.791 95.2478 207.059 94.5094Z" fill="#004236"/>
<path d="M176.26 124.295C176.07 123.442 176.689 122.715 177.481 122.49C178.89 122.087 180.896 123.262 180.552 124.902C180.311 126.053 178.86 126.195 177.845 125.721C177.12 125.501 176.441 125.096 176.26 124.295Z" fill="#004236"/>
<path d="M202.925 153.581C202.734 152.728 203.354 152.001 204.146 151.777C205.554 151.373 207.561 152.548 207.217 154.188C206.976 155.339 205.525 155.481 204.509 155.008C203.781 154.788 203.104 154.381 202.925 153.581Z" fill="#004236"/>
<path d="M193.359 121.023C193.298 120.947 193.242 120.864 193.198 120.777C193.142 120.712 193.09 120.638 193.046 120.55C192.812 120.091 192.964 119.508 193.44 119.265C194.417 118.767 195.929 119.853 195.704 120.937C195.596 121.453 195.145 121.794 194.621 121.776C194.089 121.764 193.682 121.419 193.359 121.023Z" fill="#004236"/>
<path d="M206.317 110.487C206.168 110.317 206.03 110.109 205.923 109.886C205.564 109.579 205.319 109.174 205.314 108.63C205.307 107.669 206.234 107.034 207.143 107.132C208.739 107.306 210.54 110.063 208.608 111.05C207.806 111.459 206.881 111.137 206.317 110.487Z" fill="#004236"/>
<path d="M212.238 130.975C211.742 130.247 211.867 129.102 212.682 128.66C213.153 128.405 213.584 128.329 214.087 128.549C214.397 128.684 214.673 128.889 214.921 129.114C215.789 129.908 216.125 131.034 215.167 131.939C214.872 132.218 214.387 132.188 214.041 131.994C213.337 131.966 212.611 131.526 212.238 130.975Z" fill="#004236"/>
<path d="M191.775 149.402C191.359 147.962 192.8 146.819 194.125 147.238C194.966 147.503 195.707 148.261 195.708 149.159C195.789 149.335 195.841 149.528 195.853 149.73C195.918 150.864 194.674 151.391 193.731 151.094C192.921 150.832 192.026 150.257 191.775 149.402Z" fill="#004236"/>
<path d="M172.461 147.702C171.925 147.134 171.689 146.239 172.351 145.646C172.609 145.416 172.979 145.312 173.365 145.297C174.777 144.788 176.721 146.743 175.721 148.087C174.937 149.143 173.206 148.496 172.461 147.702Z" fill="#004236"/>
<path d="M210.198 142.848C210.78 142.05 211.643 141.855 212.477 142.041C213.517 142.112 214.629 142.843 214.935 143.821C215.01 144.057 215.031 144.293 215.013 144.523L215.013 144.527C215.153 145.361 214.632 145.986 214 146.109C213.908 146.164 213.811 146.215 213.711 146.257C211.792 147.065 208.656 144.954 210.198 142.848Z" fill="#004236"/>
<path d="M100.49 83.8244C100.479 83.8155 100.47 83.8005 100.459 83.7915C100.191 83.5641 100.027 83.2324 100.107 82.8606C100.117 82.8137 100.132 82.7681 100.15 82.7204C100.193 82.5302 100.295 82.3441 100.438 82.21C101.127 81.5619 102.729 81.4375 102.898 82.6383C102.958 83.0483 102.829 83.391 102.598 83.6458C102.47 83.8144 102.291 83.9521 102.086 84.0384C101.579 84.2525 100.907 84.211 100.49 83.8244Z" fill="#DB4546"/>
<path d="M118.284 75.211C118.541 74.2039 120.348 73.5192 121.054 74.297C121.182 74.3944 121.292 74.5175 121.379 74.6588C121.719 75.2229 121.535 75.961 121.058 76.3861C120.16 77.1908 117.905 76.7082 118.284 75.211Z" fill="#DB4546"/>
<path d="M26.0967 139.177V146.247H13.5544L13.5544 139.177H26.0967ZM45.7268 154.532C43.041 154.532 40.7226 154.342 38.7715 153.962C36.8458 153.582 35.2115 153.088 33.8686 152.48C32.551 151.872 31.4868 151.187 30.676 150.427C29.8905 149.642 29.2824 148.856 28.8517 148.071C28.4463 147.285 28.1675 146.525 28.0155 145.79C27.8888 145.056 27.8255 144.422 27.8255 143.89V143.548H38.9616C38.9869 143.7 39.0629 143.991 39.1896 144.422C39.3163 144.853 39.6203 145.296 40.1018 145.752C40.6085 146.183 41.356 146.576 42.3442 146.931C43.3577 147.26 44.7513 147.425 46.525 147.425C48.2986 147.425 49.6922 147.336 50.7058 147.159C51.7446 146.981 52.5174 146.753 53.0242 146.475C53.5563 146.196 53.8857 145.904 54.0124 145.6C54.1644 145.271 54.2404 144.967 54.2404 144.688C54.2404 144.435 54.1898 144.194 54.0884 143.966C53.987 143.713 53.797 143.497 53.5183 143.32C53.2649 143.117 52.9102 142.965 52.4541 142.864C52.0233 142.763 51.4532 142.712 50.7438 142.712H41.28V135.947H50.4777C51.1365 135.947 51.6686 135.909 52.074 135.833C52.5048 135.731 52.8342 135.605 53.0622 135.453C53.2903 135.3 53.4423 135.136 53.5183 134.958C53.6196 134.756 53.6703 134.54 53.6703 134.312V134.274C53.6703 134.021 53.607 133.768 53.4803 133.514C53.3536 133.261 53.0369 133.033 52.5301 132.83C52.0487 132.627 51.3012 132.463 50.2877 132.336C49.2995 132.184 47.9312 132.108 46.1829 132.108C44.4346 132.108 43.079 132.235 42.1162 132.488C41.1786 132.741 40.4818 133.045 40.0258 133.4C39.5697 133.73 39.291 134.059 39.1896 134.388C39.1136 134.692 39.0629 134.92 39.0376 135.072H27.9775V134.692C27.9775 134.211 28.0282 133.654 28.1295 133.02C28.2562 132.361 28.5223 131.677 28.9277 130.968C29.3331 130.258 29.9032 129.561 30.638 128.877C31.3981 128.193 32.4243 127.585 33.7166 127.053C35.0088 126.496 36.5924 126.052 38.4675 125.723C40.3678 125.368 42.6483 125.191 45.3088 125.191H46.9431C49.6542 125.191 51.9727 125.305 53.8984 125.533C55.8494 125.735 57.4837 126.027 58.8013 126.407C60.1442 126.762 61.2084 127.18 61.9939 127.661C62.7794 128.142 63.3875 128.662 63.8182 129.219C64.249 129.751 64.5277 130.309 64.6544 130.892C64.7811 131.449 64.8444 131.981 64.8444 132.488V132.716C64.8444 133.425 64.6924 134.059 64.3883 134.616C64.0843 135.148 63.6915 135.617 63.2101 136.023C62.7287 136.428 62.1839 136.757 61.5758 137.011C60.993 137.264 60.4229 137.442 59.8655 137.543C60.5496 137.695 61.2464 137.936 61.9559 138.265C62.6653 138.569 63.3115 139 63.8942 139.557C64.477 140.115 64.9458 140.799 65.3005 141.61C65.6806 142.42 65.8706 143.371 65.8706 144.46V144.726C65.8706 145.892 65.6299 147.057 65.1485 148.223C64.6924 149.388 63.7929 150.44 62.45 151.378C61.1324 152.315 59.27 153.075 56.8629 153.658C54.4811 154.241 51.3772 154.532 47.5512 154.532H45.7268ZM108.755 140.393C108.755 141.255 108.666 142.205 108.489 143.244C108.311 144.258 107.969 145.296 107.463 146.361C106.981 147.399 106.284 148.413 105.372 149.401C104.46 150.364 103.269 151.238 101.8 152.024C100.33 152.784 98.5309 153.392 96.4025 153.848C94.2995 154.304 91.8037 154.532 88.9151 154.532H87.2048C84.2909 154.532 81.7824 154.304 79.6794 153.848C77.5763 153.392 75.7773 152.784 74.2824 152.024C72.8128 151.238 71.6219 150.364 70.7097 149.401C69.7975 148.413 69.0881 147.399 68.5813 146.361C68.0999 145.296 67.7705 144.258 67.5931 143.244C67.4157 142.205 67.3271 141.255 67.3271 140.393V139.253C67.3271 138.392 67.4157 137.442 67.5931 136.403C67.7705 135.364 68.0999 134.325 68.5813 133.286C69.0881 132.247 69.7975 131.246 70.7097 130.284C71.6219 129.295 72.8128 128.434 74.2824 127.699C75.7773 126.939 77.5763 126.331 79.6794 125.875C81.7824 125.419 84.2909 125.191 87.2048 125.191H88.9151C91.8037 125.191 94.2995 125.419 96.4025 125.875C98.5309 126.331 100.33 126.939 101.8 127.699C103.269 128.434 104.46 129.295 105.372 130.284C106.284 131.246 106.981 132.247 107.463 133.286C107.969 134.325 108.311 135.364 108.489 136.403C108.666 137.442 108.755 138.392 108.755 139.253V140.393ZM97.5427 139.481C97.5427 138.746 97.4034 137.986 97.1247 137.201C96.8459 136.415 96.3518 135.693 95.6424 135.034C94.9329 134.376 93.9574 133.844 92.7158 133.438C91.4996 133.007 89.9413 132.792 88.0409 132.792C86.0899 132.792 84.4936 133.007 83.252 133.438C82.0105 133.844 81.035 134.376 80.3255 135.034C79.6414 135.693 79.1599 136.415 78.8812 137.201C78.6278 137.986 78.5012 138.746 78.5012 139.481V139.937C78.5012 140.672 78.6405 141.445 78.9192 142.256C79.198 143.067 79.692 143.814 80.4015 144.498C81.111 145.182 82.0865 145.752 83.3281 146.209C84.5696 146.639 86.1406 146.855 88.0409 146.855C89.9413 146.855 91.4996 146.639 92.7158 146.209C93.9574 145.752 94.9329 145.195 95.6424 144.536C96.3518 143.852 96.8459 143.105 97.1247 142.294C97.4034 141.483 97.5427 140.71 97.5427 139.975V139.481ZM121.707 141.8C119.275 141.8 117.311 141.521 115.816 140.964C114.347 140.406 113.206 139.722 112.395 138.911C111.61 138.1 111.078 137.239 110.799 136.327C110.546 135.389 110.419 134.553 110.419 133.818V133.21C110.419 132.475 110.546 131.664 110.799 130.778C111.078 129.865 111.623 129.017 112.434 128.231C113.244 127.42 114.385 126.749 115.854 126.217C117.324 125.685 119.275 125.419 121.707 125.419H122.543C124.976 125.419 126.927 125.685 128.397 126.217C129.866 126.749 130.994 127.42 131.779 128.231C132.59 129.017 133.122 129.865 133.375 130.778C133.654 131.664 133.794 132.475 133.794 133.21V133.818C133.794 134.553 133.654 135.389 133.375 136.327C133.122 137.239 132.59 138.1 131.779 138.911C130.994 139.722 129.866 140.406 128.397 140.964C126.927 141.521 124.976 141.8 122.543 141.8H121.707ZM156.674 125.723L125.66 154H117.488L148.502 125.723H156.674ZM122.087 136.783C122.898 136.783 123.582 136.694 124.14 136.517C124.697 136.339 125.141 136.099 125.47 135.795C125.825 135.491 126.078 135.161 126.23 134.806C126.382 134.426 126.458 134.046 126.458 133.666V133.438C126.458 133.033 126.382 132.653 126.23 132.298C126.103 131.918 125.863 131.588 125.508 131.31C125.179 131.006 124.735 130.778 124.178 130.626C123.62 130.448 122.923 130.36 122.087 130.36C121.276 130.36 120.592 130.448 120.035 130.626C119.477 130.778 119.021 131.006 118.667 131.31C118.337 131.588 118.097 131.918 117.945 132.298C117.818 132.653 117.755 133.033 117.755 133.438V133.628C117.755 134.008 117.831 134.388 117.983 134.768C118.135 135.148 118.375 135.491 118.705 135.795C119.059 136.099 119.503 136.339 120.035 136.517C120.592 136.694 121.276 136.783 122.087 136.783ZM151.657 154.304C149.25 154.304 147.299 154.025 145.804 153.468C144.334 152.91 143.194 152.226 142.383 151.416C141.598 150.605 141.066 149.743 140.787 148.831C140.533 147.894 140.407 147.057 140.407 146.323V145.714C140.407 144.98 140.533 144.156 140.787 143.244C141.066 142.332 141.61 141.483 142.421 140.697C143.232 139.887 144.372 139.215 145.842 138.683C147.311 138.151 149.262 137.885 151.695 137.885H152.531C154.963 137.885 156.915 138.151 158.384 138.683C159.854 139.215 160.994 139.887 161.805 140.697C162.616 141.483 163.148 142.332 163.401 143.244C163.68 144.156 163.819 144.98 163.819 145.714V146.323C163.819 147.057 163.68 147.894 163.401 148.831C163.148 149.743 162.616 150.605 161.805 151.416C161.019 152.226 159.892 152.91 158.422 153.468C156.953 154.025 155.001 154.304 152.569 154.304H151.657ZM152.113 149.287C152.924 149.287 153.608 149.198 154.165 149.021C154.723 148.844 155.166 148.603 155.496 148.299C155.85 147.995 156.104 147.665 156.256 147.311C156.408 146.931 156.484 146.551 156.484 146.171V145.904C156.484 145.499 156.408 145.119 156.256 144.764C156.104 144.384 155.85 144.055 155.496 143.776C155.166 143.497 154.723 143.282 154.165 143.13C153.608 142.953 152.924 142.864 152.113 142.864C151.277 142.864 150.58 142.953 150.023 143.13C149.465 143.282 149.009 143.497 148.654 143.776C148.325 144.055 148.084 144.384 147.932 144.764C147.805 145.119 147.742 145.499 147.742 145.904V146.095C147.742 146.5 147.818 146.893 147.97 147.273C148.122 147.653 148.363 147.995 148.692 148.299C149.047 148.603 149.503 148.844 150.061 149.021C150.618 149.198 151.302 149.287 152.113 149.287Z" fill="#004236"/>
</svg>
