<svg width="242" height="167" viewBox="0 0 242 167" fill="none" xmlns="http://www.w3.org/2000/svg">
<g clip-path="url(#clip0)">
<path d="M224.908 48.8594C224.934 50.0402 226.533 49.3577 217.791 39.3378C195.547 13.8483 171.328 24.0703 141.775 28.4035C141.753 28.3522 141.731 28.2982 141.71 28.2469C141.226 27.1043 140.641 25.9958 140.03 24.908C139.46 23.8116 138.835 22.7457 138.167 21.7001C138.094 21.5848 138.018 21.467 137.942 21.352C136.378 18.8187 134.687 16.3746 132.859 14.0125C132.674 13.73 132.494 13.444 132.317 13.1576C132.062 12.7422 131.476 12.6356 131.174 13.0801C130.05 14.7297 129.034 16.4639 128.128 18.2456C127.708 19.072 127.344 19.9133 127.051 20.7932C126.897 21.2542 126.746 21.7547 126.624 22.2597C121.429 22.8874 116.236 23.5318 111.043 24.1846C110.276 24.2802 109.497 24.4002 108.718 24.4518C107.674 22.8621 106.052 21.473 104.552 20.3837C104.055 20.022 103.54 19.6885 103.013 19.3739C101.581 18.4919 100.039 17.8251 98.4174 17.2464C98.0867 17.1299 97.7346 17.2932 97.6669 17.6508C97.5859 18.0788 97.5018 18.5043 97.447 18.9344C97.4361 19.0215 97.4438 19.0975 97.4619 19.1663C97.0316 22.1946 96.6469 25.2222 96.4231 28.2758C96.1741 31.684 95.9799 35.096 95.7885 38.5076C95.4187 45.2177 95.4016 51.9557 95.4275 58.6733C95.4811 72.0799 95.4275 58.6733 95.5543 68.9303C61.0862 85.6534 83.6846 121.065 86.3202 121.531C86.5779 121.575 86.9082 121.358 86.9131 121.083C86.9197 120.78 86.8806 120.497 86.8033 120.228C86.9729 120.213 87.1432 120.183 87.3113 120.137C87.645 120.048 87.8829 119.803 87.8429 119.432C87.8165 119.179 87.7712 118.934 87.709 118.692C87.8445 118.679 87.9796 118.643 88.1141 118.581C88.6331 118.343 89.0008 117.755 88.8297 117.18C88.6541 116.594 88.5009 115.693 87.8554 114.873C85.8429 112.316 85.464 101.932 86.3718 99.5849C88.8804 93.0988 94.7292 85.0395 118.124 87.045C126.793 87.7882 144.434 101.541 139.873 117.624C138.883 121.113 135.853 125.46 132.249 125.936C131.41 126.048 131.232 126.977 131.892 127.45C132.07 127.577 132.245 127.704 132.423 127.83C131.762 127.996 131.151 128.333 130.861 128.781C130.157 129.873 131.248 130.46 132.417 130.808C132.128 131.467 132.016 132.211 132.142 132.97C132.205 133.343 132.559 133.525 132.894 133.572C145.168 135.234 155.426 115.866 155.499 103.497C155.519 100.132 155.469 96.7717 155.401 93.4104C231.285 104.917 217.544 67.2735 217.544 67.2735C217.544 67.2735 218.555 95.867 227.334 80.6863C236.112 65.5056 224.934 50.0402 224.934 50.0402" fill="#60B0BB"/>
<path d="M127.694 32.7361C126.667 32.4055 125.529 32.9438 125.214 33.9552C125.113 34.1321 125.053 34.343 125.056 34.6081C125.069 35.5681 126.187 36.3968 127.078 36.5122C128.077 36.6412 128.984 35.8411 129.096 34.8666C129.208 33.9006 128.607 33.0311 127.694 32.7361Z" fill="#EF8194"/>
<path d="M109.641 36.8209C109.466 36.0546 108.87 35.5527 108.164 35.2886C107.905 35.1907 107.611 35.2546 107.368 35.4054C107.119 35.463 106.879 35.5706 106.667 35.7315C106.105 36.158 105.874 36.9066 106.011 37.5868C106.277 38.9282 107.896 39.5728 108.982 38.7165C109.542 38.276 109.799 37.5123 109.641 36.8209Z" fill="#EF8194"/>
<path d="M127.83 29.2551C127.13 28.622 125.697 28.9703 124.898 29.233C123.747 29.6134 122.699 30.3731 122.05 31.4055C122.015 31.459 122.089 31.54 122.139 31.4873C122.902 30.6788 123.787 30.0873 124.862 29.7747C125.406 29.616 125.977 29.545 126.545 29.5627C126.954 29.5771 127.381 29.6716 127.775 29.5424C127.898 29.5024 127.924 29.3389 127.83 29.2551Z" fill="#684739"/>
<path d="M127.506 30.222C127.098 30.5586 126.584 30.833 126.051 31.0301C126.112 30.9187 126.152 30.7933 126.159 30.6526C126.171 30.4339 126.042 30.2436 125.858 30.1551C125.768 29.9565 125.59 29.8072 125.372 29.7634C125.228 29.7349 125.068 29.7372 124.926 29.7884C124.591 29.9093 124.576 30.3139 124.488 30.6115C124.415 30.8644 124.456 31.104 124.666 31.2774C124.699 31.3043 124.73 31.3256 124.765 31.3465C124.443 31.3827 124.116 31.3913 123.796 31.3731C123.407 31.3503 123.033 31.2141 122.646 31.2253C122.31 31.2351 122.174 31.6593 122.46 31.8505C123.293 32.4108 124.696 32.1523 125.569 31.8251C126.411 31.5078 127.007 30.9738 127.55 30.2673C127.564 30.2454 127.535 30.2009 127.506 30.222Z" fill="#684739"/>
<path d="M121.998 41.3646C121.655 41.6323 121.306 42.0462 120.892 42.1925C120.295 42.4042 119.997 41.9663 119.784 41.485C119.621 41.1111 119.495 40.7177 119.378 40.3287C119.315 40.1178 119.29 39.9186 119.22 39.7429C119.236 39.7321 119.254 39.721 119.27 39.7102C119.706 39.4125 119.81 38.947 119.848 38.4537C119.94 38.3724 119.95 38.2197 119.906 38.1116C119.385 36.8058 118.99 35.354 118.842 33.9533C118.838 33.9053 118.77 33.9119 118.768 33.9579C118.748 34.7599 118.726 35.5163 118.873 36.3092C118.977 36.8741 119.12 37.4279 119.293 37.9746C118.843 37.9317 118.391 37.7608 118.011 38.1391C117.657 38.4911 117.779 39.1448 118.016 39.5341C118.193 39.8261 118.452 39.9385 118.726 39.9173C118.723 40.0548 118.743 40.2004 118.769 40.348C118.707 40.876 118.596 41.4111 118.453 41.9104C118.39 42.1334 118.346 42.5019 118.203 42.6874C117.944 43.0232 117.573 42.5327 117.348 42.3185C117.114 42.0943 116.76 42.2436 116.784 42.5771C116.85 43.4697 117.968 44.2528 118.687 43.4733C119.052 43.077 119.201 42.5025 119.229 41.8964C119.343 42.203 119.495 42.4958 119.73 42.7228C120.122 43.099 120.691 43.2023 121.195 43.0035C121.844 42.7476 122.158 42.2099 122.345 41.5732C122.412 41.3583 122.153 41.2459 121.998 41.3646ZM118.709 39.1492C118.628 39.1033 118.462 38.7326 118.483 38.6555C118.545 38.4242 118.982 38.4603 119.339 38.4933C119.313 38.8651 119.214 39.4326 118.709 39.1492Z" fill="#684739"/>
<path d="M113.064 32.2336C112.213 31.5617 111.187 31.2567 110.103 31.2938C109.163 31.3249 107.989 31.6057 107.296 32.2761C106.98 32.5798 107.369 33.0764 107.747 32.9552C108.396 32.7476 108.956 32.4926 109.58 32.3342C109.569 32.3529 109.554 32.3749 109.546 32.3932C109.436 32.6112 109.476 32.8596 109.607 33.0412C109.645 33.1156 109.706 33.1814 109.772 33.2464C109.861 33.3282 109.969 33.3217 110.075 33.3041C110.106 33.3054 110.138 33.3039 110.169 33.2995C110.602 33.2477 110.895 32.6788 110.615 32.3097C110.577 32.2608 110.539 32.2175 110.497 32.1834C111.146 32.1386 111.806 32.1722 112.452 32.2733C112.038 32.9845 111.37 33.3804 110.573 33.5743C109.731 33.7772 108.894 33.5316 108.06 33.665C107.817 33.7047 107.671 34.0817 107.914 34.2247C108.821 34.7605 110.135 34.6513 111.089 34.2871C111.762 34.0277 112.327 33.5236 112.703 32.9118C112.71 32.9022 112.718 32.8926 112.722 32.8807C112.798 32.7501 112.868 32.6176 112.929 32.4778C112.947 32.4383 112.95 32.4007 112.945 32.3643C112.963 32.3676 112.983 32.3705 113.001 32.3765C113.092 32.3952 113.135 32.2893 113.064 32.2336Z" fill="#684739"/>
<path d="M124.41 37.1952C123.583 37.339 122.558 37.7246 121.955 38.3253C121.925 38.3552 121.95 38.4145 121.997 38.4022C122.457 38.2752 122.884 38.0274 123.325 37.8516C123.705 37.6989 124.092 37.5649 124.47 37.4037C124.581 37.3569 124.536 37.1748 124.41 37.1952Z" fill="#FCF6DE"/>
<path d="M125.574 38.0634C124.656 38.3569 123.768 38.7376 122.87 39.0856C122.829 39.1026 122.85 39.1683 122.894 39.1592C123.84 38.9474 124.778 38.6967 125.663 38.2908C125.789 38.2332 125.708 38.0218 125.574 38.0634Z" fill="#FCF6DE"/>
<path d="M125.915 39.7395C125.121 39.7731 124.338 39.9195 123.553 40.0346C123.505 40.0413 123.511 40.1205 123.559 40.1194C124.353 40.0714 125.151 40.0459 125.939 39.9131C126.037 39.8966 126.014 39.737 125.915 39.7395Z" fill="#FCF6DE"/>
<path d="M115.069 39.0149C114.59 38.8819 114.078 38.8764 113.584 38.8453C113.082 38.8126 112.554 38.7378 112.055 38.8275C111.845 38.8652 111.857 39.1519 112.059 39.1893C112.55 39.2836 113.089 39.214 113.586 39.1875C114.074 39.1622 114.595 39.161 115.069 39.0349C115.077 39.0309 115.078 39.0165 115.069 39.0149Z" fill="#FCF6DE"/>
<path d="M114.318 40.1585C113.531 39.9713 112.479 39.9326 111.764 40.3634C111.619 40.4522 111.692 40.6675 111.852 40.6708C112.268 40.6784 112.672 40.5421 113.083 40.4734C113.497 40.4043 113.905 40.3331 114.317 40.2528C114.367 40.243 114.365 40.169 114.318 40.1585Z" fill="#FCF6DE"/>
<path d="M114.817 41.3845C113.955 41.2164 112.798 41.4064 112.13 42.0161C112.006 42.1305 112.132 42.324 112.285 42.2885C112.722 42.1847 113.12 41.9608 113.55 41.8237C113.97 41.691 114.399 41.5912 114.819 41.4613C114.862 41.4466 114.861 41.3927 114.817 41.3845Z" fill="#FCF6DE"/>
<path d="M215.345 45.7434C222.748 50.088 229.34 56.2238 231.378 71.1174C232.998 82.9697 232.87 95.1659 230.976 107C229.239 117.845 225.575 128.591 218.474 137.15C211.952 145.015 202.653 150.645 192.278 151.045C182.335 151.427 172.264 146.955 167.51 137.943C165.297 133.748 164.35 128.871 164.933 124.155C165.493 119.624 167.616 115.458 170.874 112.261C177.492 105.769 191.932 107.446 200.25 104.022C204.336 102.339 208.361 100.28 211.599 97.225C215.184 93.8425 217.267 82.6295 218.314 75.3968C219.881 64.5697 208.567 63.4335 205.957 53.0663L215.345 45.7434Z" fill="#60B0BB"/>
<path d="M143.638 28.0632C149.434 33.822 157.199 43.1448 161.446 50.8093C161.827 51.4926 162.87 51.2986 162.974 50.522C163.561 46.1476 162.089 41.5439 159.444 37.9542C156.339 33.7437 153.95 29.1508 149.163 27.0244" fill="#31574A"/>
<path d="M154.444 26.2907C160.24 32.0495 166.049 40.338 170.296 48.0053C170.677 48.6885 173.064 49.8797 173.168 49.1031C173.755 44.7287 165.074 27.3025 160.287 25.1789" fill="#31574A"/>
<path d="M164.883 24.6009C170.68 30.3596 173.133 32.0096 177.38 39.674C177.76 40.3573 180.147 41.5484 180.251 40.7719C180.839 36.3975 175.513 25.6098 170.726 23.4862" fill="#31574A"/>
<path d="M187.475 95.4041C187.877 88.0816 187.657 90.9549 188.147 82.2017C188.19 81.4193 189.216 81.1393 189.646 81.7928C192.078 85.475 192.512 90.6546 191.691 95.0387" fill="#31574A"/>
<path d="M194.191 94.6899C196.905 86.9766 196.841 89.6197 197.332 80.8692C197.375 80.0869 199.951 80.1786 200.384 80.8317C202.816 84.5139 203.287 89.7195 199.903 93.7192" fill="#31574A"/>
<path d="M87.9226 72.9712C92.2174 78.9165 90.5817 76.5418 95.7071 83.6527C96.164 84.2882 95.5423 85.1484 94.7971 84.9099C90.585 83.5709 86.9885 79.8199 84.8698 75.8971" fill="#31574A"/>
<path d="M83.1395 77.7367C85.8776 85.4318 84.2634 83.3366 89.3888 90.4476C89.8457 91.0831 87.7827 92.6266 87.0348 92.3884C82.8226 91.0494 79.1809 87.302 79.3006 82.0709" fill="#31574A"/>
<path d="M153.565 115.788C146.732 113.102 149.395 114.218 141.23 110.998C140.501 110.712 140.561 109.653 141.319 109.45C145.591 108.307 150.653 109.524 154.558 111.682" fill="#31574A"/>
<path d="M155.022 109.203C148.553 104.209 151.045 105.1 142.883 101.88C142.154 101.594 143.058 99.1817 143.817 98.9789C148.089 97.8351 153.187 99.0248 155.913 103.491" fill="#31574A"/>
<path d="M203.838 92.2285C206.558 88.2644 206.554 86.5211 207.331 85.2768C207.745 84.6111 208.656 83.0713 209.441 83.0361C212.102 82.919 212.439 85.8088 209.052 89.8117" fill="#31574A"/>
<path d="M219.824 88.5431C219.26 90.9992 218.936 93.5103 218.057 95.8819C217.959 96.1467 217.555 95.9975 217.602 95.7342C218.03 93.2485 218.971 90.9167 219.699 88.5091C219.72 88.4292 219.841 88.4608 219.824 88.5431Z" fill="#31574A"/>
<path d="M216.422 105.394C215.757 106.007 215.189 106.651 214.45 107.182C214.096 107.437 213.643 106.869 213.975 106.58C214.659 105.986 215.437 105.595 216.185 105.091C216.366 104.971 216.581 105.247 216.422 105.394Z" fill="#31574A"/>
<path d="M224.35 98.1464C224.077 98.9836 223.88 99.8331 223.576 100.672C223.292 101.453 223.031 102.295 222.589 103.001C222.432 103.252 221.998 103.055 222.062 102.775C222.44 101.099 223.43 99.5962 224.181 98.0815C224.23 97.9805 224.387 98.0358 224.35 98.1464Z" fill="#31574A"/>
<path d="M206.908 103.61C205.794 104.59 204.707 105.601 203.504 106.474C203.21 106.686 202.856 106.276 203.138 106.04C204.28 105.078 205.525 104.257 206.748 103.401C206.873 103.312 207.021 103.512 206.908 103.61Z" fill="#31574A"/>
<path d="M205.874 115.045C205.24 115.507 204.674 116.046 203.983 116.428C203.606 116.637 203.302 116.069 203.665 115.844C204.329 115.432 205.072 115.203 205.777 114.879C205.876 114.834 205.962 114.979 205.874 115.045Z" fill="#31574A"/>
<path d="M217.665 115.353C216.092 117.228 214.498 119.085 212.862 120.903C212.624 121.167 212.255 120.748 212.496 120.486C214.142 118.701 215.831 116.956 217.537 115.228C217.607 115.158 217.732 115.275 217.665 115.353Z" fill="#31574A"/>
<path d="M224.383 113.568C223.78 114.814 223.183 116.061 222.584 117.309C222.481 117.521 222.147 117.353 222.258 117.149C222.928 115.931 223.594 114.711 224.26 113.491C224.306 113.41 224.423 113.485 224.383 113.568Z" fill="#31574A"/>
<path d="M203.085 122.812C202.071 123.444 201.135 124.137 200.026 124.594C199.757 124.703 199.594 124.306 199.815 124.15C200.786 123.475 201.864 123.059 202.922 122.546C203.08 122.467 203.237 122.714 203.085 122.812Z" fill="#31574A"/>
<path d="M191.241 113.961C189.599 114.704 187.976 115.475 186.249 115.999C185.958 116.088 185.808 115.683 186.085 115.556C187.729 114.81 189.444 114.289 191.167 113.757C191.299 113.716 191.367 113.903 191.241 113.961Z" fill="#31574A"/>
<path d="M191.201 121.938C189.739 122.801 188.268 123.642 186.74 124.384C186.443 124.528 186.18 124.094 186.478 123.935C187.985 123.128 189.536 122.432 191.1 121.746C191.21 121.697 191.307 121.874 191.201 121.938Z" fill="#31574A"/>
<path d="M193.061 130.046C191.881 130.491 190.711 131.005 189.501 131.351C189.272 131.417 189.143 131.041 189.368 130.952C190.534 130.49 191.784 130.199 192.987 129.843C193.119 129.804 193.191 129.997 193.061 130.046Z" fill="#31574A"/>
<path d="M208.582 130.827C207.591 131.154 206.658 131.618 205.813 132.232C205.33 132.582 204.887 132.978 204.482 133.42C204.216 133.711 204.001 134.078 203.645 134.258C203.512 134.326 203.317 134.224 203.363 134.058C203.483 133.642 203.818 133.381 204.137 133.097C204.572 132.708 205.04 132.351 205.531 132.035C206.461 131.434 207.475 130.996 208.546 130.712C208.62 130.691 208.655 130.803 208.582 130.827Z" fill="#31574A"/>
<path d="M194.912 136.187C193.76 136.81 192.629 137.547 191.388 137.983C191.145 138.068 190.937 137.717 191.168 137.571C192.277 136.863 193.572 136.428 194.782 135.914C194.963 135.837 195.085 136.094 194.912 136.187Z" fill="#31574A"/>
<path d="M180.565 128.513C179.55 128.78 178.516 129.187 177.485 129.365C177.145 129.424 177.032 128.857 177.368 128.765C178.371 128.488 179.478 128.425 180.502 128.242C180.678 128.212 180.739 128.466 180.565 128.513Z" fill="#31574A"/>
<path d="M177.022 118.493C176.271 118.669 175.521 118.845 174.767 119.024C174.155 119.169 173.505 119.408 172.876 119.391C172.598 119.384 172.526 118.948 172.787 118.849C173.41 118.617 174.148 118.62 174.807 118.545C175.536 118.463 176.263 118.382 176.992 118.3C177.119 118.288 177.144 118.464 177.022 118.493Z" fill="#31574A"/>
<path d="M189.126 109.587C187.451 110.137 185.738 110.758 183.986 110.989C183.685 111.028 183.655 110.584 183.911 110.491C185.553 109.894 187.335 109.625 189.057 109.342C189.214 109.315 189.284 109.533 189.126 109.587Z" fill="#31574A"/>
<path d="M196.079 115.05C195.109 115.725 194.183 116.453 193.116 116.973C192.8 117.128 192.561 116.616 192.843 116.426C193.817 115.776 194.895 115.335 195.951 114.845C196.088 114.783 196.213 114.96 196.079 115.05Z" fill="#31574A"/>
<path d="M183.895 132.569C182.899 133.022 181.905 133.48 180.897 133.906C180.619 134.025 180.444 133.567 180.733 133.464C181.763 133.1 182.805 132.773 183.842 132.434C183.919 132.409 183.97 132.533 183.895 132.569Z" fill="#31574A"/>
<path d="M184.115 139.1C183.695 139.456 183.291 139.84 182.879 140.214C182.885 140.299 182.853 140.392 182.764 140.456C182.379 140.729 181.994 141.009 181.609 141.285C181.317 141.491 180.934 141.034 181.21 140.795C182.039 140.075 183.031 139.508 183.918 138.856C184.082 138.734 184.268 138.968 184.115 139.1Z" fill="#31574A"/>
<path d="M194.319 146.036C192.994 146.712 191.69 147.462 190.278 147.939C189.917 148.06 189.716 147.495 190.041 147.324C191.356 146.635 192.798 146.211 194.195 145.72C194.407 145.645 194.508 145.939 194.319 146.036Z" fill="#31574A"/>
<path d="M206.455 139.269C205.894 139.661 205.333 140.048 204.78 140.45C204.177 140.888 203.608 141.347 202.906 141.602C202.658 141.691 202.477 141.339 202.654 141.169C203.18 140.653 203.838 140.339 204.478 139.984C205.073 139.656 205.663 139.314 206.258 138.98C206.451 138.87 206.643 139.137 206.455 139.269Z" fill="#31574A"/>
<path d="M214.852 131.04C214.044 131.838 213.255 132.627 212.325 133.282C212.135 133.417 211.942 133.121 212.089 132.964C212.863 132.148 213.735 131.484 214.62 130.795C214.767 130.681 214.99 130.904 214.852 131.04Z" fill="#31574A"/>
<path d="M207.288 125.26C205.977 125.4 205.027 126.328 204.502 127.495C204.376 127.778 203.946 127.564 204.019 127.285C204.401 125.831 205.831 124.98 207.292 125.045C207.419 125.05 207.406 125.246 207.288 125.26Z" fill="#31574A"/>
<path d="M218.502 125.944C217.899 125.68 217.229 126.128 217.052 126.729C216.923 127.161 216.249 127.086 216.335 126.615C216.444 126.032 216.786 125.678 217.364 125.549C217.796 125.452 218.237 125.476 218.616 125.731C218.741 125.814 218.648 126.007 218.502 125.944Z" fill="#31574A"/>
<path d="M172.086 123.742C171.225 123.97 170.387 124.279 169.52 124.488C169.081 124.595 168.967 123.854 169.426 123.782C170.285 123.645 171.157 123.603 172.019 123.486C172.184 123.463 172.257 123.698 172.086 123.742Z" fill="#31574A"/>
<path d="M172.511 133.121C171.334 133.419 170.162 133.714 168.977 133.971C168.555 134.064 168.405 133.391 168.824 133.324C170.036 133.13 171.245 132.964 172.462 132.808C172.668 132.785 172.707 133.071 172.511 133.121Z" fill="#31574A"/>
<path d="M176.943 138.482C176.239 139.474 174.988 140.105 173.779 139.777C173.535 139.711 173.629 139.358 173.872 139.401C174.996 139.607 176.107 139.349 176.818 138.405C176.876 138.332 176.998 138.403 176.943 138.482Z" fill="#31574A"/>
<path d="M182.94 145.035C182.564 145.27 182.191 145.51 181.817 145.745C181.515 145.936 181.229 146.147 180.884 146.252C180.623 146.331 180.448 145.956 180.642 145.786C180.931 145.538 181.294 145.393 181.637 145.228C182.007 145.048 182.376 144.865 182.749 144.685C182.98 144.575 183.156 144.899 182.94 145.035Z" fill="#31574A"/>
<path d="M196.317 108.895C194.99 110.381 193.194 111.477 191.145 111.343C190.839 111.323 190.795 110.821 191.114 110.793C192.994 110.634 194.853 110.178 196.224 108.802C196.284 108.739 196.374 108.833 196.317 108.895Z" fill="#31574A"/>
<path d="M174.802 113.965C174.335 114.227 173.877 114.493 173.39 114.715C172.963 114.912 172.695 114.281 173.145 114.119C173.659 113.93 174.188 113.805 174.715 113.666C174.9 113.617 174.945 113.882 174.802 113.965Z" fill="#31574A"/>
<path d="M207.692 110.719C206.568 111.215 205.327 111.922 204.105 112.101C203.758 112.152 203.684 111.7 203.952 111.549C205.012 110.944 206.424 110.776 207.591 110.487C207.724 110.455 207.829 110.657 207.692 110.719Z" fill="#31574A"/>
<path d="M215.399 98.042C213.971 99.671 212.605 101.497 210.938 102.888C210.733 103.059 210.336 102.835 210.526 102.577C211.825 100.824 213.577 99.3492 215.134 97.8277C215.286 97.681 215.544 97.8733 215.399 98.042Z" fill="#31574A"/>
<path d="M223.315 76.3003C223.076 78.1317 222.893 79.9895 222.514 81.7976C222.462 82.0418 222.087 82.0198 222.117 81.7616C222.334 79.9163 222.742 78.0927 223.09 76.2689C223.113 76.143 223.332 76.1724 223.315 76.3003Z" fill="#31574A"/>
<path d="M228.912 81.7959C228.493 79.5968 228.223 77.3569 228.134 75.1203C228.128 74.9956 228.329 74.9418 228.356 75.075C228.825 77.2671 229.12 79.5179 229.247 81.7577C229.263 81.9781 228.952 82.0071 228.912 81.7959Z" fill="#31574A"/>
<path d="M221.833 69.7686C221.826 70.2348 221.76 70.6892 221.681 71.1484C221.632 71.4377 221.189 71.3768 221.179 71.0957C221.165 70.6638 221.154 70.2372 221.201 69.8083C221.253 69.3358 221.396 68.9248 221.507 68.467C221.531 68.3695 221.688 68.3448 221.698 68.4632C221.748 68.9271 221.839 69.294 221.833 69.7686Z" fill="#31574A"/>
<path d="M223.448 62.4425C223.436 61.4053 223.45 60.3729 223.473 59.3366C223.474 59.2423 223.629 59.2292 223.64 59.3248C223.759 60.3555 223.864 61.3826 223.945 62.4188C223.969 62.7351 223.452 62.7616 223.448 62.4425Z" fill="#31574A"/>
<path d="M227.047 68.4078C226.597 66.7012 226.219 64.9872 225.888 63.2553C225.877 63.1941 225.977 63.1772 225.994 63.2348C226.509 64.9069 226.978 66.5852 227.377 68.2905C227.427 68.5061 227.104 68.6283 227.047 68.4078Z" fill="#31574A"/>
<path d="M227.131 91.7424C227.114 92.0759 226.594 92.0771 226.61 91.7409C226.702 90.0071 226.861 88.2839 227.028 86.5539C227.038 86.4412 227.232 86.437 227.231 86.5541C227.227 88.287 227.212 90.013 227.131 91.7424Z" fill="#31574A"/>
<path d="M216.75 50.3936C217.277 51.1705 217.797 51.9457 218.288 52.7449C218.432 52.9816 218.027 53.2407 217.872 53.0083C217.353 52.2303 216.876 51.4292 216.396 50.6256C216.257 50.3909 216.598 50.1664 216.75 50.3936Z" fill="#31574A"/>
<path d="M223.773 54.7938C223.884 54.9725 223.609 55.1164 223.479 54.9805C222.526 53.9832 221.775 52.7922 221 51.656C220.935 51.5594 221.092 51.4547 221.167 51.5413C222.077 52.5816 223.05 53.6133 223.773 54.7938Z" fill="#31574A"/>
<path d="M219.926 59.8741C219.681 58.6839 219.468 57.4949 219.265 56.296C219.22 56.0284 219.626 55.946 219.68 56.2153C219.925 57.4084 220.153 58.5981 220.354 59.8003C220.4 60.0763 219.981 60.149 219.926 59.8741Z" fill="#31574A"/>
</g>
<path d="M13.2092 114.177V121.247H0.666803L0.666803 114.177H13.2092ZM15.1351 129V125.693C15.1351 125.06 15.1604 124.363 15.2111 123.603C15.2871 122.818 15.4771 122.019 15.7812 121.209C16.1106 120.372 16.5793 119.536 17.1874 118.7C17.8209 117.839 18.6951 117.015 19.8099 116.23C20.9501 115.419 22.3691 114.671 24.0667 113.987C25.7644 113.303 27.8421 112.695 30.2999 112.163C31.1867 111.96 32.1369 111.757 33.1504 111.555C34.164 111.352 35.0381 111.187 35.7729 111.061C36.6598 110.883 37.3692 110.719 37.9013 110.567C38.4334 110.389 38.8262 110.224 39.0795 110.072C39.3583 109.895 39.5356 109.718 39.6116 109.54C39.6877 109.363 39.7257 109.16 39.7257 108.932C39.7257 108.679 39.6497 108.451 39.4976 108.248C39.3709 108.02 39.0795 107.817 38.6235 107.64C38.1927 107.463 37.5719 107.323 36.7611 107.222C35.9503 107.121 34.8734 107.07 33.5305 107.07C31.9089 107.07 30.642 107.209 29.7298 107.488C28.8176 107.767 28.1335 108.109 27.6774 108.514C27.2213 108.894 26.9299 109.3 26.8032 109.73C26.7019 110.136 26.6385 110.478 26.6132 110.757H15.5911V110.491C15.5911 109.908 15.6418 109.249 15.7432 108.514C15.8699 107.754 16.1232 106.994 16.5033 106.234C16.9087 105.474 17.4788 104.739 18.2136 104.029C18.9484 103.295 19.9366 102.648 21.1782 102.091C22.4451 101.508 23.9907 101.052 25.8151 100.723C27.6394 100.368 29.8311 100.191 32.3903 100.191H34.0246C37.5973 100.191 40.4858 100.431 42.6902 100.913C44.92 101.394 46.643 102.04 47.8592 102.851C49.1008 103.662 49.9369 104.599 50.3677 105.664C50.8238 106.702 51.0518 107.805 51.0518 108.97V109.122C51.0518 110.288 50.8491 111.314 50.4437 112.201C50.0636 113.088 49.3922 113.873 48.4293 114.557C47.4665 115.241 46.1489 115.837 44.4766 116.344C42.8042 116.825 40.7012 117.268 38.1674 117.674L32.0862 118.7C30.4646 118.979 29.1597 119.27 28.1715 119.574C27.1833 119.853 26.4105 120.132 25.8531 120.41C25.321 120.689 24.9662 120.955 24.7889 121.209C24.6115 121.462 24.5228 121.69 24.5228 121.893H41.474V118.548H51.4699V129H15.1351ZM94.6424 115.393C94.6424 116.255 94.5537 117.205 94.3764 118.244C94.199 119.258 93.8569 120.296 93.3502 121.361C92.8688 122.399 92.172 123.413 91.2598 124.401C90.3476 125.364 89.1567 126.238 87.6871 127.024C86.2175 127.784 84.4185 128.392 82.2901 128.848C80.187 129.304 77.6912 129.532 74.8027 129.532H73.0924C70.1785 129.532 67.67 129.304 65.567 128.848C63.4639 128.392 61.6649 127.784 60.1699 127.024C58.7003 126.238 57.5094 125.364 56.5973 124.401C55.6851 123.413 54.9756 122.399 54.4689 121.361C53.9874 120.296 53.6581 119.258 53.4807 118.244C53.3033 117.205 53.2146 116.255 53.2146 115.393V114.253C53.2146 113.392 53.3033 112.442 53.4807 111.403C53.6581 110.364 53.9874 109.325 54.4689 108.286C54.9756 107.247 55.6851 106.246 56.5973 105.284C57.5094 104.295 58.7003 103.434 60.1699 102.699C61.6649 101.939 63.4639 101.331 65.567 100.875C67.67 100.419 70.1785 100.191 73.0924 100.191H74.8027C77.6912 100.191 80.187 100.419 82.2901 100.875C84.4185 101.331 86.2175 101.939 87.6871 102.699C89.1567 103.434 90.3476 104.295 91.2598 105.284C92.172 106.246 92.8688 107.247 93.3502 108.286C93.8569 109.325 94.199 110.364 94.3764 111.403C94.5537 112.442 94.6424 113.392 94.6424 114.253V115.393ZM83.4303 114.481C83.4303 113.746 83.291 112.986 83.0122 112.201C82.7335 111.415 82.2394 110.693 81.53 110.034C80.8205 109.376 79.845 108.844 78.6034 108.438C77.3872 108.007 75.8289 107.792 73.9285 107.792C71.9775 107.792 70.3812 108.007 69.1396 108.438C67.8981 108.844 66.9225 109.376 66.2131 110.034C65.529 110.693 65.0475 111.415 64.7688 112.201C64.5154 112.986 64.3887 113.746 64.3887 114.481V114.937C64.3887 115.672 64.5281 116.445 64.8068 117.256C65.0855 118.067 65.5796 118.814 66.2891 119.498C66.9986 120.182 67.9741 120.752 69.2156 121.209C70.4572 121.639 72.0282 121.855 73.9285 121.855C75.8289 121.855 77.3872 121.639 78.6034 121.209C79.845 120.752 80.8205 120.195 81.53 119.536C82.2394 118.852 82.7335 118.105 83.0122 117.294C83.291 116.483 83.4303 115.71 83.4303 114.975V114.481ZM107.595 116.8C105.162 116.8 103.199 116.521 101.704 115.964C100.234 115.406 99.0939 114.722 98.2831 113.911C97.4976 113.1 96.9655 112.239 96.6868 111.327C96.4334 110.389 96.3067 109.553 96.3067 108.818V108.21C96.3067 107.475 96.4334 106.664 96.6868 105.778C96.9655 104.865 97.5103 104.017 98.3211 103.231C99.1319 102.42 100.272 101.749 101.742 101.217C103.211 100.685 105.162 100.419 107.595 100.419H108.431C110.863 100.419 112.814 100.685 114.284 101.217C115.754 101.749 116.881 102.42 117.667 103.231C118.478 104.017 119.01 104.865 119.263 105.778C119.542 106.664 119.681 107.475 119.681 108.21V108.818C119.681 109.553 119.542 110.389 119.263 111.327C119.01 112.239 118.478 113.1 117.667 113.911C116.881 114.722 115.754 115.406 114.284 115.964C112.814 116.521 110.863 116.8 108.431 116.8H107.595ZM142.561 100.723L111.548 129H103.376L134.39 100.723H142.561ZM107.975 111.783C108.786 111.783 109.47 111.694 110.027 111.517C110.585 111.339 111.028 111.099 111.358 110.795C111.712 110.491 111.966 110.161 112.118 109.806C112.27 109.426 112.346 109.046 112.346 108.666V108.438C112.346 108.033 112.27 107.653 112.118 107.298C111.991 106.918 111.75 106.588 111.396 106.31C111.066 106.006 110.623 105.778 110.065 105.626C109.508 105.448 108.811 105.36 107.975 105.36C107.164 105.36 106.48 105.448 105.923 105.626C105.365 105.778 104.909 106.006 104.554 106.31C104.225 106.588 103.984 106.918 103.832 107.298C103.705 107.653 103.642 108.033 103.642 108.438V108.628C103.642 109.008 103.718 109.388 103.87 109.768C104.022 110.148 104.263 110.491 104.592 110.795C104.947 111.099 105.39 111.339 105.923 111.517C106.48 111.694 107.164 111.783 107.975 111.783ZM137.544 129.304C135.137 129.304 133.186 129.025 131.691 128.468C130.222 127.91 129.082 127.226 128.271 126.416C127.485 125.605 126.953 124.743 126.674 123.831C126.421 122.894 126.294 122.057 126.294 121.323V120.714C126.294 119.98 126.421 119.156 126.674 118.244C126.953 117.332 127.498 116.483 128.309 115.698C129.12 114.887 130.26 114.215 131.729 113.683C133.199 113.151 135.15 112.885 137.582 112.885H138.419C140.851 112.885 142.802 113.151 144.272 113.683C145.741 114.215 146.882 114.887 147.692 115.698C148.503 116.483 149.035 117.332 149.289 118.244C149.567 119.156 149.707 119.98 149.707 120.714V121.323C149.707 122.057 149.567 122.894 149.289 123.831C149.035 124.743 148.503 125.605 147.692 126.416C146.907 127.226 145.779 127.91 144.31 128.468C142.84 129.025 140.889 129.304 138.457 129.304H137.544ZM138.001 124.287C138.811 124.287 139.495 124.198 140.053 124.021C140.61 123.844 141.054 123.603 141.383 123.299C141.738 122.995 141.991 122.665 142.143 122.311C142.295 121.931 142.371 121.551 142.371 121.171V120.904C142.371 120.499 142.295 120.119 142.143 119.764C141.991 119.384 141.738 119.055 141.383 118.776C141.054 118.497 140.61 118.282 140.053 118.13C139.495 117.953 138.811 117.864 138.001 117.864C137.164 117.864 136.468 117.953 135.91 118.13C135.353 118.282 134.897 118.497 134.542 118.776C134.212 119.055 133.972 119.384 133.82 119.764C133.693 120.119 133.63 120.499 133.63 120.904V121.095C133.63 121.5 133.706 121.893 133.858 122.273C134.01 122.653 134.251 122.995 134.58 123.299C134.935 123.603 135.391 123.844 135.948 124.021C136.506 124.198 137.19 124.287 138.001 124.287Z" fill="#004236"/>
<defs>
<clipPath id="clip0">
<rect width="157.041" height="145.713" fill="white" transform="matrix(0.990413 -0.138138 0.137084 0.990559 66 21.6934)"/>
</clipPath>
</defs>
</svg>
